<svg width="36" height="36" viewBox="0 0 36 36" fill="none" xmlns="http://www.w3.org/2000/svg">
<g clip-path="url(#clip0)">
<path d="M33 1.49988H3.00002C1.3455 1.49988 0 2.84538 0 4.4999V31.4999C0 33.1544 1.3455 34.4999 3.00002 34.4999H33C34.6545 34.4999 36 33.1544 36 31.4999V4.4999C36 2.84538 34.6545 1.49988 33 1.49988ZM34.5 31.4999C34.5 32.3271 33.8273 32.9999 33 32.9999H3.00002C2.1728 32.9999 1.50005 32.3271 1.50005 31.4999V4.4999C1.50005 3.67267 2.1728 2.99992 3.00002 2.99992H33C33.8273 2.99992 34.5 3.67267 34.5 4.4999V31.4999Z" fill="#FF6600"/>
<path d="M5.25002 4.49988H4.49999C4.08599 4.49988 3.74997 4.83513 3.74997 5.2499C3.74997 5.66468 4.08599 5.99993 4.49999 5.99993H5.25002C5.66402 5.99993 6.00004 5.66468 6.00004 5.2499C5.99997 4.83513 5.66402 4.49988 5.25002 4.49988Z" fill="#FF6600"/>
<path d="M8.99999 4.49988H8.24996C7.83596 4.49988 7.49994 4.83513 7.49994 5.2499C7.49994 5.66468 7.83596 5.99993 8.24996 5.99993H8.99999C9.41399 5.99993 9.75001 5.66468 9.75001 5.2499C9.75001 4.83513 9.41399 4.49988 8.99999 4.49988Z" fill="#FF6600"/>
<path d="M31.5 4.49988H30.75C30.3352 4.49988 29.9999 4.83513 29.9999 5.2499C29.9999 5.66468 30.3352 5.99993 30.75 5.99993H31.5C31.9148 5.99993 32.25 5.66468 32.25 5.2499C32.25 4.83513 31.9148 4.49988 31.5 4.49988Z" fill="#FF6600"/>
<path d="M32.25 7.5H3.74996C3.33596 7.5 2.99994 7.83525 2.99994 8.25002C2.99994 8.66479 3.33596 9.00004 3.74996 9.00004H32.2499C32.6647 9.00004 33 8.66479 33 8.25002C33 7.83525 32.6647 7.5 32.25 7.5Z" fill="#FF6600"/>
<path d="M24.75 15.7499C24.3352 15.7499 24 16.0851 24 16.4999V23.9999C24 24.4147 24.3352 24.7499 24.75 24.7499C25.1648 24.7499 25.5 24.4147 25.5 23.9999V16.4999C25.5 16.0851 25.1648 15.7499 24.75 15.7499Z" fill="#FF6600"/>
<path d="M19.5 15.7499H17.25C16.836 15.7499 16.4999 16.0851 16.4999 16.4999V23.9999C16.4999 24.4147 16.836 24.7499 17.25 24.7499C17.664 24.7499 18 24.4146 18 23.9999V21.7499H19.5C21.1507 21.7499 21.75 20.4044 21.75 19.4999V17.9999C21.75 16.3492 20.4045 15.7499 19.5 15.7499ZM20.25 19.4909C20.241 19.8374 20.1045 20.2499 19.5 20.2499H18V17.2499H19.491C19.8375 17.2589 20.25 17.3954 20.25 17.9999V19.4909Z" fill="#FF6600"/>
<path d="M26.25 15.7499H23.2499C22.8352 15.7499 22.4999 16.0851 22.4999 16.4999C22.4999 16.9147 22.8352 17.2499 23.2499 17.2499H26.25C26.6647 17.2499 27 16.9147 27 16.4999C27 16.0851 26.6647 15.7499 26.25 15.7499Z" fill="#FF6600"/>
<path d="M26.25 23.2499H23.2499C22.8352 23.2499 22.4999 23.5851 22.4999 23.9999C22.4999 24.4147 22.8352 24.7499 23.2499 24.7499H26.25C26.6647 24.7499 27 24.4147 27 23.9999C27 23.5851 26.6647 23.2499 26.25 23.2499Z" fill="#FF6600"/>
<path d="M12 15.7499C10.3455 15.7499 9 17.0954 9 18.7499V23.9999C9 24.4147 9.33602 24.7499 9.75002 24.7499C10.164 24.7499 10.5 24.4147 10.5 23.9999V18.7499C10.5 17.9227 11.1728 17.2499 12 17.2499C12.8273 17.2499 13.5 17.9227 13.5 18.7499V23.9999C13.5 24.4147 13.836 24.7499 14.25 24.7499C14.664 24.7499 15 24.4147 15 23.9999V18.7499C15 17.0954 13.6545 15.7499 12 15.7499Z" fill="#FF6600"/>
<path d="M14.25 20.2499H9.75002C9.33602 20.2499 9 20.5851 9 20.9999C9 21.4147 9.33602 21.7499 9.75002 21.7499H14.25C14.664 21.7499 15 21.4147 15 20.9999C15 20.5851 14.664 20.2499 14.25 20.2499Z" fill="#FF6600"/>
</g>
<defs>
<clipPath id="clip0">
<rect width="36" height="36" fill="white"/>
</clipPath>
</defs>
</svg>
