<svg width="193" height="50" viewBox="0 0 193 50" fill="none" xmlns="http://www.w3.org/2000/svg">
<rect width="193" height="50" rx="25" fill="white"/>
<path fill-rule="evenodd" clip-rule="evenodd" d="M47.8359 11.1706C46.6619 11.1706 45.7102 12.1223 45.7102 13.2963V30.117C45.7102 31.2909 46.6619 32.2426 47.8359 32.2426H47.9336C48.2474 32.4253 48.6122 32.5299 49.0015 32.5299H70.3912C71.5652 32.5299 72.5169 31.5783 72.5169 30.4042V14.4205C72.5169 14.295 72.506 14.1721 72.4852 14.0526V13.2963C72.4852 12.1223 71.5334 11.1706 70.3595 11.1706H47.8359ZM72.4852 14.0526C72.3109 13.054 71.4397 12.2949 70.3912 12.2949H49.0015C47.8275 12.2949 46.8758 13.2465 46.8758 14.4205V30.4042C46.8758 31.189 47.301 31.8744 47.9336 32.2426H70.3595C71.5334 32.2426 72.4852 31.2909 72.4852 30.117V14.0526Z" fill="#FF6600"/>
<path d="M50.1245 13.3771C49.2503 13.5856 48.2726 14.4561 47.8966 15.3628L47.6804 15.8796L47.6522 23.8315C47.624 32.6628 47.6146 32.5269 48.235 33.4517C48.5546 33.9414 49.0435 34.3675 49.5605 34.6304C50.1903 34.9387 50.8859 34.9659 57.7577 34.9659H64.5543V36.9154C64.5543 38.756 64.5636 38.8647 64.7234 38.7831C64.8081 38.7288 65.4379 38.2391 66.1053 37.677C66.7821 37.1239 67.7974 36.2807 68.3802 35.8183L69.4237 34.9659H70.4954C72.319 34.9659 73.1557 34.7211 73.9265 33.9504C74.1427 33.7418 74.4435 33.3157 74.5845 33.0165L74.8477 32.4724V24.0854V15.6983L74.5375 15.0908C74.1991 14.4198 73.6163 13.8576 72.9207 13.5403L72.4976 13.3408L61.4521 13.3227C55.3794 13.3227 50.2843 13.3408 50.1245 13.3771ZM59.4968 18.6451L59.525 21.6373L61.4051 19.6243C63.5201 17.3576 64.1312 16.7047 64.7423 16.0791L65.1652 15.6439L66.2745 15.6711L67.3743 15.6983L66.5096 16.6503C65.419 17.8472 61.4051 22.2356 61.1042 22.553L60.8787 22.7888L62.4485 24.8652C65.3251 28.6643 67.7128 31.8377 67.788 31.9465C67.8444 32.0372 67.6 32.0645 66.6881 32.0645H65.5225L64.0936 30.2328C63.304 29.2174 61.9503 27.4856 61.0855 26.3794L59.525 24.3664L59.4968 28.2109L59.4779 32.0645H58.538H57.5979V29.2083V26.3521H56.1408H54.6838V25.4001V24.448H56.1408H57.5979V23.496V22.544H56.1408H54.6838V21.5466V20.5492H56.1408H57.5979V18.1011V15.6529H58.538H59.4779L59.4968 18.6451Z" fill="#003399"/>
<path d="M92.4325 29.9412H89.4913L87.1861 25.9666V29.9412H84.5364V20.6672H87.1861V24.3767L89.3588 20.6672H92.3L89.5443 25.1717L92.4325 29.9412ZM95.5037 30.1266C94.5145 30.1266 93.671 29.791 92.9733 29.1198C92.2844 28.4485 91.9399 27.6182 91.9399 26.629C91.9399 25.6398 92.2844 24.8096 92.9733 24.1383C93.6622 23.4671 94.5057 23.1314 95.5037 23.1314C96.5018 23.1314 97.3453 23.4671 98.0342 24.1383C98.7232 24.8096 99.0676 25.6398 99.0676 26.629C99.0676 27.6182 98.7232 28.4485 98.0342 29.1198C97.3453 29.791 96.5018 30.1266 95.5037 30.1266ZM94.6956 27.4769C94.9076 27.6889 95.177 27.7949 95.5037 27.7949C95.8305 27.7949 96.0955 27.6889 96.2987 27.4769C96.5107 27.2561 96.6166 26.9735 96.6166 26.629C96.6166 26.2846 96.5107 26.0063 96.2987 25.7944C96.0955 25.5736 95.8305 25.4631 95.5037 25.4631C95.177 25.4631 94.9076 25.5736 94.6956 25.7944C94.4924 26.0063 94.3909 26.2846 94.3909 26.629C94.3909 26.9735 94.4924 27.2561 94.6956 27.4769ZM99.839 29.9412V20.2697H102.29V29.9412H99.839ZM106.592 30.1266C105.602 30.1266 104.759 29.791 104.061 29.1198C103.372 28.4485 103.028 27.6182 103.028 26.629C103.028 25.6398 103.372 24.8096 104.061 24.1383C104.75 23.4671 105.594 23.1314 106.592 23.1314C107.59 23.1314 108.433 23.4671 109.122 24.1383C109.811 24.8096 110.155 25.6398 110.155 26.629C110.155 27.6182 109.811 28.4485 109.122 29.1198C108.433 29.791 107.59 30.1266 106.592 30.1266ZM105.783 27.4769C105.995 27.6889 106.265 27.7949 106.592 27.7949C106.918 27.7949 107.183 27.6889 107.387 27.4769C107.598 27.2561 107.704 26.9735 107.704 26.629C107.704 26.2846 107.598 26.0063 107.387 25.7944C107.183 25.5736 106.918 25.4631 106.592 25.4631C106.265 25.4631 105.995 25.5736 105.783 25.7944C105.58 26.0063 105.479 26.2846 105.479 26.629C105.479 26.9735 105.58 27.2561 105.783 27.4769ZM118.743 23.1314C119.512 23.1314 120.112 23.3743 120.545 23.8601C120.978 24.337 121.194 25.0216 121.194 25.9136V29.9412H118.743V26.2448C118.743 25.7414 118.518 25.4897 118.068 25.4897C117.547 25.4897 117.286 25.8164 117.286 26.4701V29.9412H114.835V26.2448C114.835 25.7414 114.61 25.4897 114.159 25.4897C113.638 25.4897 113.378 25.8164 113.378 26.4701V29.9412H110.927V23.3169H113.378V23.9396C113.811 23.4008 114.411 23.1314 115.18 23.1314C115.939 23.1314 116.491 23.4052 116.836 23.9528C117.313 23.4052 117.949 23.1314 118.743 23.1314ZM125.429 30.1266C124.44 30.1266 123.597 29.791 122.899 29.1198C122.21 28.4485 121.866 27.6182 121.866 26.629C121.866 25.6398 122.21 24.8096 122.899 24.1383C123.588 23.4671 124.431 23.1314 125.429 23.1314C126.427 23.1314 127.271 23.4671 127.96 24.1383C128.649 24.8096 128.993 25.6398 128.993 26.629C128.993 27.6182 128.649 28.4485 127.96 29.1198C127.271 29.791 126.427 30.1266 125.429 30.1266ZM124.621 27.4769C124.833 27.6889 125.103 27.7949 125.429 27.7949C125.756 27.7949 126.021 27.6889 126.224 27.4769C126.436 27.2561 126.542 26.9735 126.542 26.629C126.542 26.2846 126.436 26.0063 126.224 25.7944C126.021 25.5736 125.756 25.4631 125.429 25.4631C125.103 25.4631 124.833 25.5736 124.621 25.7944C124.418 26.0063 124.316 26.2846 124.316 26.629C124.316 26.9735 124.418 27.2561 124.621 27.4769ZM133.991 23.1314C134.715 23.1314 135.293 23.3832 135.727 23.8866C136.168 24.3812 136.389 25.1231 136.389 26.1123V29.9412H133.938V26.3773C133.938 25.7856 133.664 25.4897 133.117 25.4897C132.825 25.4897 132.6 25.5824 132.441 25.7678C132.291 25.9534 132.216 26.2095 132.216 26.5363V29.9412H129.764V23.3169H132.216V23.966C132.622 23.4097 133.214 23.1314 133.991 23.1314ZM138.617 22.8134C138.247 22.8134 137.924 22.6809 137.65 22.416C137.385 22.1422 137.253 21.8242 137.253 21.4621C137.253 21.1 137.385 20.7864 137.65 20.5215C137.924 20.2476 138.247 20.1108 138.617 20.1108C138.979 20.1108 139.292 20.2476 139.558 20.5215C139.832 20.7864 139.969 21.1 139.969 21.4621C139.969 21.8242 139.832 22.1422 139.558 22.416C139.292 22.6809 138.979 22.8134 138.617 22.8134ZM137.385 29.9412V23.3169H139.836V29.9412H137.385Z" fill="#383838"/>
<path d="M87.661 33.2167V36.5242H87.3301V33.7176L86.1725 35.6548H86.1253L84.9677 33.7176V36.5242H84.637V33.2167H85.048L86.149 35.0595L87.2499 33.2167H87.661ZM90.3486 36.2266C90.1092 36.4629 89.8161 36.5809 89.4697 36.5809C89.1231 36.5809 88.8286 36.4629 88.5861 36.2266C88.3467 35.9872 88.227 35.6926 88.227 35.343C88.227 34.9933 88.3467 34.7004 88.5861 34.4641C88.8286 34.2247 89.1231 34.105 89.4697 34.105C89.8161 34.105 90.1092 34.2247 90.3486 34.4641C90.5911 34.7004 90.7124 34.9933 90.7124 35.343C90.7124 35.6926 90.5911 35.9872 90.3486 36.2266ZM88.8081 36.0093C88.9877 36.1888 89.2082 36.2785 89.4697 36.2785C89.7311 36.2785 89.9516 36.1888 90.1311 36.0093C90.3107 35.8265 90.4005 35.6044 90.4005 35.343C90.4005 35.0815 90.3107 34.861 90.1311 34.6815C89.9516 34.4988 89.7311 34.4074 89.4697 34.4074C89.2082 34.4074 88.9877 34.4988 88.8081 34.6815C88.6286 34.861 88.5388 35.0815 88.5388 35.343C88.5388 35.6044 88.6286 35.8265 88.8081 36.0093ZM91.546 34.5539C91.691 34.2672 91.9398 34.1239 92.2926 34.1239V34.4263C92.0784 34.4263 91.9004 34.4893 91.7587 34.6153C91.617 34.7413 91.546 34.9398 91.546 35.2107V36.5242H91.2342V34.1617H91.546V34.5539ZM93.6684 34.105C94.0181 34.105 94.3 34.2294 94.5142 34.4783C94.7315 34.7241 94.8402 35.0154 94.8402 35.3524C94.8402 35.3871 94.8371 35.4359 94.8308 35.4989H92.7565C92.788 35.7383 92.8888 35.9289 93.0589 36.0706C93.2321 36.2092 93.4448 36.2785 93.6968 36.2785C93.8763 36.2785 94.0307 36.2423 94.1598 36.1698C94.2921 36.0942 94.3913 35.9967 94.4575 35.8769L94.7315 36.0376C94.6276 36.2045 94.4859 36.3369 94.3063 36.4344C94.1267 36.5321 93.922 36.5809 93.6921 36.5809C93.3203 36.5809 93.0179 36.4644 92.7849 36.2313C92.5517 35.9982 92.4352 35.7021 92.4352 35.343C92.4352 34.9902 92.5502 34.6956 92.7801 34.4595C93.0101 34.2232 93.3062 34.105 93.6684 34.105ZM93.6684 34.4074C93.4227 34.4074 93.2164 34.4814 93.0495 34.6295C92.8857 34.7745 92.788 34.9635 92.7565 35.1965H94.5189C94.4874 34.9476 94.3913 34.7539 94.2307 34.6153C94.0701 34.4767 93.8826 34.4074 93.6684 34.4074ZM97.7696 34.4641H97.0892V35.8959C97.0892 36.025 97.1144 36.1179 97.1648 36.1746C97.2152 36.2281 97.2908 36.2565 97.3916 36.2596C97.4924 36.2596 97.6184 36.2565 97.7696 36.2502V36.5242C97.4389 36.5746 97.19 36.5511 97.0231 36.4534C96.8593 36.3557 96.7774 36.1698 96.7774 35.8959V34.4641H96.2813V34.1617H96.7774V33.5947L97.0892 33.5002V34.1617H97.7696V34.4641ZM99.395 34.105C99.6817 34.105 99.9069 34.1932 100.071 34.3696C100.238 34.5429 100.321 34.7776 100.321 35.0736V36.5242H100.009V35.0736C100.009 34.8627 99.9526 34.6989 99.8392 34.5822C99.729 34.4657 99.5714 34.4074 99.3667 34.4074C99.1399 34.4074 98.9557 34.4799 98.8139 34.6248C98.6721 34.7665 98.6012 34.987 98.6012 35.2863V36.5242H98.2894V33.2167H98.6012V34.5303C98.7776 34.2468 99.0422 34.105 99.395 34.105ZM102.956 34.1617H103.268V36.5242H102.956V36.0612C102.739 36.4077 102.42 36.5809 102.001 36.5809C101.664 36.5809 101.376 36.4612 101.137 36.2218C100.901 35.9824 100.782 35.6895 100.782 35.343C100.782 34.9965 100.901 34.7035 101.137 34.4641C101.376 34.2247 101.664 34.105 102.001 34.105C102.42 34.105 102.739 34.2783 102.956 34.6248V34.1617ZM101.364 36.0093C101.543 36.1888 101.764 36.2785 102.025 36.2785C102.287 36.2785 102.507 36.1888 102.687 36.0093C102.866 35.8265 102.956 35.6044 102.956 35.343C102.956 35.0815 102.866 34.861 102.687 34.6815C102.507 34.4988 102.287 34.4074 102.025 34.4074C101.764 34.4074 101.543 34.4988 101.364 34.6815C101.184 34.861 101.094 35.0815 101.094 35.343C101.094 35.6044 101.184 35.8265 101.364 36.0093ZM105.034 34.105C105.32 34.105 105.546 34.1932 105.709 34.3696C105.876 34.5429 105.96 34.7776 105.96 35.0736V36.5242H105.648V35.0736C105.648 34.8627 105.591 34.6989 105.478 34.5822C105.368 34.4657 105.21 34.4074 105.005 34.4074C104.779 34.4074 104.594 34.4799 104.452 34.6248C104.311 34.7665 104.24 34.987 104.24 35.2863V36.5242H103.928V34.1617H104.24V34.5303C104.416 34.2468 104.681 34.105 105.034 34.105ZM107.853 33.2734C107.897 33.2293 107.95 33.2073 108.013 33.2073C108.076 33.2073 108.13 33.2293 108.174 33.2734C108.218 33.3175 108.24 33.3711 108.24 33.4341C108.24 33.4971 108.218 33.5506 108.174 33.5947C108.13 33.6388 108.076 33.6609 108.013 33.6609C107.95 33.6609 107.897 33.6388 107.853 33.5947C107.809 33.5506 107.787 33.4971 107.787 33.4341C107.787 33.3711 107.809 33.3175 107.853 33.2734ZM107.857 36.7132V34.1617H108.169V36.7132C108.169 36.9967 108.095 37.2094 107.947 37.3511C107.799 37.4928 107.59 37.5511 107.319 37.5259V37.2235C107.505 37.2424 107.64 37.2125 107.725 37.1338C107.813 37.0551 107.857 36.9148 107.857 36.7132ZM110.496 34.1617H110.808V36.5242H110.496V36.1557C110.32 36.4392 110.055 36.5809 109.702 36.5809C109.416 36.5809 109.189 36.4943 109.022 36.321C108.858 36.1446 108.776 35.9085 108.776 35.6123V34.1617H109.088V35.6123C109.088 35.8234 109.143 35.9872 109.253 36.1037C109.367 36.2202 109.526 36.2785 109.731 36.2785C109.958 36.2785 110.142 36.2076 110.284 36.0659C110.425 35.9211 110.496 35.6989 110.496 35.3997V34.1617ZM111.713 34.7807C111.713 34.8879 111.761 34.9728 111.855 35.0358C111.95 35.0988 112.065 35.1477 112.2 35.1823C112.336 35.217 112.471 35.2564 112.606 35.3004C112.742 35.3415 112.857 35.4123 112.951 35.5131C113.046 35.6107 113.093 35.7399 113.093 35.9005C113.093 36.1021 113.013 36.2659 112.852 36.3919C112.695 36.5179 112.49 36.5809 112.238 36.5809C112.011 36.5809 111.817 36.5305 111.657 36.4297C111.499 36.3289 111.389 36.1983 111.326 36.0376L111.591 35.8816C111.635 36.0045 111.713 36.1021 111.827 36.1746C111.943 36.2439 112.08 36.2785 112.238 36.2785C112.392 36.2785 112.521 36.2487 112.625 36.1888C112.729 36.1258 112.781 36.0297 112.781 35.9005C112.781 35.7934 112.734 35.7084 112.64 35.6454C112.545 35.5824 112.43 35.5336 112.295 35.4989C112.159 35.4642 112.024 35.4264 111.888 35.3855C111.753 35.3415 111.638 35.2705 111.543 35.1729C111.449 35.0721 111.402 34.9414 111.402 34.7807C111.402 34.5886 111.477 34.4279 111.628 34.2988C111.783 34.1697 111.976 34.105 112.21 34.105C112.402 34.105 112.57 34.1491 112.715 34.2373C112.86 34.3224 112.967 34.4389 113.036 34.587L112.777 34.7382C112.685 34.5177 112.496 34.4074 112.21 34.4074C112.074 34.4074 111.958 34.4405 111.86 34.5066C111.762 34.5696 111.713 34.6611 111.713 34.7807ZM114.773 34.4641H114.093V35.8959C114.093 36.025 114.118 36.1179 114.168 36.1746C114.219 36.2281 114.294 36.2565 114.395 36.2596C114.496 36.2596 114.622 36.2565 114.773 36.2502V36.5242C114.442 36.5746 114.194 36.5511 114.027 36.4534C113.863 36.3557 113.781 36.1698 113.781 35.8959V34.4641H113.285V34.1617H113.781V33.5947L114.093 33.5002V34.1617H114.773V34.4641ZM118.506 34.1617H118.818V36.5242H118.506V36.0612C118.289 36.4077 117.97 36.5809 117.551 36.5809C117.214 36.5809 116.926 36.4612 116.687 36.2218C116.451 35.9824 116.332 35.6895 116.332 35.343C116.332 34.9965 116.451 34.7035 116.687 34.4641C116.926 34.2247 117.214 34.105 117.551 34.105C117.97 34.105 118.289 34.2783 118.506 34.6248V34.1617ZM116.914 36.0093C117.093 36.1888 117.314 36.2785 117.575 36.2785C117.837 36.2785 118.057 36.1888 118.237 36.0093C118.416 35.8265 118.506 35.6044 118.506 35.343C118.506 35.0815 118.416 34.861 118.237 34.6815C118.057 34.4988 117.837 34.4074 117.575 34.4074C117.314 34.4074 117.093 34.4988 116.914 34.6815C116.734 34.861 116.644 35.0815 116.644 35.343C116.644 35.6044 116.734 35.8265 116.914 36.0093ZM120.584 34.105C120.87 34.105 121.096 34.1932 121.259 34.3696C121.426 34.5429 121.51 34.7776 121.51 35.0736V36.5242H121.198V35.0736C121.198 34.8627 121.141 34.6989 121.028 34.5822C120.918 34.4657 120.76 34.4074 120.555 34.4074C120.329 34.4074 120.144 34.4799 120.003 34.6248C119.861 34.7665 119.79 34.987 119.79 35.2863V36.5242H119.478V34.1617H119.79V34.5303C119.966 34.2468 120.231 34.105 120.584 34.105ZM125.543 36.5242L125.236 35.7115H123.667L123.36 36.5242H123.011L124.282 33.2167H124.622L125.893 36.5242H125.543ZM123.785 35.3997H125.118L124.452 33.6279L123.785 35.3997ZM127.537 34.105C127.873 34.105 128.16 34.2247 128.396 34.4641C128.636 34.7035 128.755 34.9965 128.755 35.343C128.755 35.6895 128.636 35.9824 128.396 36.2218C128.16 36.4612 127.873 36.5809 127.537 36.5809C127.118 36.5809 126.799 36.4077 126.582 36.0612V37.4692H126.27V34.1617H126.582V34.6248C126.799 34.2783 127.118 34.105 127.537 34.105ZM126.851 36.0093C127.031 36.1888 127.251 36.2785 127.513 36.2785C127.775 36.2785 127.995 36.1888 128.174 36.0093C128.354 35.8265 128.443 35.6044 128.443 35.343C128.443 35.0815 128.354 34.861 128.174 34.6815C127.995 34.4988 127.775 34.4074 127.513 34.4074C127.251 34.4074 127.031 34.4988 126.851 34.6815C126.672 34.861 126.582 35.0815 126.582 35.343C126.582 35.6044 126.672 35.8265 126.851 36.0093ZM130.54 34.105C130.878 34.105 131.164 34.2247 131.401 34.4641C131.639 34.7035 131.76 34.9965 131.76 35.343C131.76 35.6895 131.639 35.9824 131.401 36.2218C131.164 36.4612 130.878 36.5809 130.54 36.5809C130.122 36.5809 129.803 36.4077 129.586 36.0612V37.4692H129.274V34.1617H129.586V34.6248C129.803 34.2783 130.122 34.105 130.54 34.105ZM129.856 36.0093C130.035 36.1888 130.255 36.2785 130.517 36.2785C130.778 36.2785 130.999 36.1888 131.178 36.0093C131.358 35.8265 131.448 35.6044 131.448 35.343C131.448 35.0815 131.358 34.861 131.178 34.6815C130.999 34.4988 130.778 34.4074 130.517 34.4074C130.255 34.4074 130.035 34.4988 129.856 34.6815C129.675 34.861 129.586 35.0815 129.586 35.343C129.586 35.6044 129.675 35.8265 129.856 36.0093Z" fill="#828282"/>
</svg>
