<svg width="44" height="43" viewBox="0 0 44 43" fill="none" xmlns="http://www.w3.org/2000/svg">
<g clip-path="url(#clip0)">
<path d="M33.0982 40.8479H31.0892V39.5086H33.0982C33.9858 39.5076 34.8368 39.1545 35.4645 38.5268C36.0922 37.8991 36.4453 37.0481 36.4464 36.1604V26.7854C36.4453 25.8977 36.0922 25.0467 35.4645 24.419C34.8368 23.7913 33.9858 23.4382 33.0982 23.4372H29.7499V22.0979H33.0982C34.3409 22.0993 35.5324 22.5936 36.4111 23.4724C37.2899 24.3512 37.7842 25.5426 37.7857 26.7854V36.1604C37.7842 37.4032 37.2899 38.5946 36.4111 39.4734C35.5324 40.3522 34.3409 40.8465 33.0982 40.8479Z" fill="white"/>
<path d="M12.3393 40.8479H10.3303C9.08757 40.8465 7.89611 40.3522 7.01734 39.4734C6.13857 38.5946 5.64425 37.4032 5.64284 36.1604V35.3441L3.47185 34.801C3.32692 34.7649 3.19824 34.6813 3.10626 34.5636C3.01429 34.4459 2.96431 34.3008 2.96426 34.1515V30.1336C2.96431 29.9842 3.01429 29.8392 3.10626 29.7215C3.19824 29.6038 3.32692 29.5202 3.47185 29.4841L5.64284 28.941V26.7854C5.64425 25.5426 6.13857 24.3512 7.01734 23.4724C7.89611 22.5936 9.08757 22.0993 10.3303 22.0979V23.4372C9.44266 23.4382 8.59165 23.7913 7.96396 24.419C7.33628 25.0467 6.98318 25.8977 6.98212 26.7854V29.464C6.98208 29.6133 6.9321 29.7584 6.84012 29.8761C6.74815 29.9938 6.61946 30.0774 6.47453 30.1135L4.30355 30.6566V33.6285L6.47453 34.1716C6.61946 34.2077 6.74815 34.2913 6.84012 34.409C6.9321 34.5267 6.98208 34.6717 6.98212 34.8211V36.1604C6.98318 37.0481 7.33628 37.8991 7.96396 38.5268C8.59165 39.1545 9.44266 39.5076 10.3303 39.5086H12.3393V40.8479Z" fill="white"/>
<path d="M10.4006 25.0758L8.3917 21.058C8.34067 20.9558 8.3166 20.8424 8.32176 20.7283C8.32693 20.6143 8.36116 20.5035 8.42121 20.4064C8.48126 20.3093 8.56513 20.2292 8.66487 20.1736C8.7646 20.1181 8.87687 20.0889 8.99103 20.089C11.0756 20.089 15.0178 21.0687 15.0178 24.7765H13.6785C13.6785 22.4917 11.5176 21.7631 10.1294 21.5354L11.6026 24.4772L10.4006 25.0758Z" fill="white"/>
<path d="M15.6874 42.857H13.0089C12.8684 42.8569 12.7315 42.8126 12.6176 42.7304C12.5036 42.6482 12.4184 42.5322 12.374 42.399L11.0348 38.3811L12.3071 37.9579L13.4917 41.5177H15.2046L16.3919 37.9579L17.6642 38.3811L16.3249 42.399C16.2804 42.5327 16.1948 42.6489 16.0803 42.7312C15.9659 42.8134 15.8284 42.8575 15.6874 42.857Z" fill="white"/>
<path d="M30.4196 42.857H27.741C27.6005 42.8569 27.4636 42.8126 27.3497 42.7304C27.2358 42.6482 27.1506 42.5322 27.1062 42.399L25.7669 38.3811L27.0392 37.9579L28.2238 41.5177H29.9368L31.124 37.9579L32.3964 38.3811L31.0571 42.399C31.0125 42.5327 30.927 42.6489 30.8125 42.7312C30.698 42.8134 30.5605 42.8575 30.4196 42.857Z" fill="white"/>
<path d="M18.366 39.5087H27.0714V40.848H18.366V39.5087Z" fill="white"/>
<path d="M38.1835 6.63875L26.4754 1.43562L20.089 5.90549L19.3216 4.80861L26.0181 0.121113C26.1126 0.0549184 26.2226 0.014277 26.3375 0.00313092C26.4523 -0.00801518 26.5681 0.0107124 26.6736 0.0574972L38.7272 5.41464L38.1835 6.63875Z" fill="white"/>
<path d="M33.0982 15.4017C31.3843 15.3811 29.7046 14.9199 28.2205 14.0624H23.3883C22.7667 14.0624 22.1706 13.8154 21.7311 13.3759C21.2915 12.9364 21.0446 12.3402 21.0446 11.7186C21.0446 11.097 21.2915 10.5009 21.7311 10.0613C22.1706 9.62181 22.7667 9.37488 23.3883 9.37488H28.1877L30.6874 7.49988L31.491 8.57131L28.8124 10.5802C28.6965 10.6672 28.5555 10.7142 28.4107 10.7142H23.3883C23.1219 10.7142 22.8664 10.82 22.6781 11.0084C22.4897 11.1967 22.3839 11.4522 22.3839 11.7186C22.3839 11.985 22.4897 12.2405 22.6781 12.4289C22.8664 12.6173 23.1219 12.7231 23.3883 12.7231H28.4107C28.5429 12.7233 28.6722 12.7624 28.7823 12.8356C30.0885 13.6158 31.5769 14.0389 33.0982 14.0624C34.8479 14.03 36.5894 13.8123 38.2932 13.4128L38.6174 14.7119C36.8079 15.1403 34.9574 15.3716 33.0982 15.4017Z" fill="white"/>
<path d="M42.4732 16.0712H38.4553C38.2777 16.0712 38.1074 16.0006 37.9818 15.875C37.8562 15.7494 37.7857 15.5791 37.7857 15.4015V4.68722C37.7857 4.50962 37.8562 4.33929 37.9818 4.21371C38.1074 4.08813 38.2777 4.01758 38.4553 4.01758H42.4732C42.6508 4.01758 42.8211 4.08813 42.9467 4.21371C43.0723 4.33929 43.1428 4.50962 43.1428 4.68722V15.4015C43.1428 15.5791 43.0723 15.7494 42.9467 15.875C42.8211 16.0006 42.6508 16.0712 42.4732 16.0712ZM39.125 14.7319H41.8035V5.35686H39.125V14.7319Z" fill="white"/>
<path d="M39.7946 12.7229H41.1339V14.0622H39.7946V12.7229Z" fill="white"/>
<path d="M29.7499 26.7856H16.3571C16.1795 26.7856 16.0092 26.715 15.8836 26.5895C15.758 26.4639 15.6874 26.2936 15.6874 26.1159V5.35702C15.6874 5.17942 15.758 5.00909 15.8836 4.88351C16.0092 4.75793 16.1795 4.68738 16.3571 4.68738H29.7499C29.9275 4.68738 30.0979 4.75793 30.2234 4.88351C30.349 5.00909 30.4196 5.17942 30.4196 5.35702V9.37488H29.0803V6.02666H17.0267V25.4463H29.0803V14.0624H30.4196V26.1159C30.4196 26.2936 30.349 26.4639 30.2234 26.5895C30.0979 26.715 29.9275 26.7856 29.7499 26.7856Z" fill="white"/>
<path d="M14.3481 25.4463H31.7588V26.7856H14.3481V25.4463Z" fill="white"/>
<path d="M33.0982 25.4463H34.4375V26.7856H33.0982V25.4463Z" fill="white"/>
<path d="M13.6785 22.0979H16.3571V23.4372H13.6785V22.0979Z" fill="white"/>
<path d="M26.4017 13.3927H27.741V26.1159H26.4017V13.3927Z" fill="white"/>
<path d="M19.7053 26.1157H18.366V9.37465C18.366 9.19705 18.4365 9.02672 18.5621 8.90114C18.6877 8.77556 18.858 8.70501 19.0356 8.70501C19.2132 8.70501 19.3836 8.63446 19.5091 8.50887C19.6347 8.38329 19.7053 8.21297 19.7053 8.03537C19.7053 7.85777 19.7758 7.68744 19.9014 7.56186C20.027 7.43627 20.1973 7.36572 20.3749 7.36572H25.7321C25.9097 7.36572 26.08 7.43627 26.2056 7.56186C26.3312 7.68744 26.4017 7.85777 26.4017 8.03537C26.4017 8.21297 26.4723 8.38329 26.5978 8.50887C26.7234 8.63446 26.8938 8.70501 27.0714 8.70501C27.249 8.70501 27.4193 8.77556 27.5449 8.90114C27.6704 9.02672 27.741 9.19705 27.741 9.37465V10.0443H26.4017V9.92979C26.1195 9.82925 25.8632 9.6672 25.6514 9.45536C25.4395 9.24353 25.2775 8.98722 25.1769 8.70501H20.9301C20.8295 8.98722 20.6675 9.24353 20.4556 9.45536C20.2438 9.6672 19.9875 9.82925 19.7053 9.92979V26.1157Z" fill="white"/>
<path d="M15.8127 21.8174L9.11628 12.4424C9.06265 12.3671 9.02518 12.2816 9.00621 12.1912C8.98724 12.1007 8.98719 12.0074 9.00606 11.9169C9.02493 11.8265 9.06231 11.7409 9.11585 11.6656C9.16939 11.5903 9.23794 11.5269 9.31717 11.4794L16.0136 7.46155L16.7033 8.60932L10.627 12.2542L16.9015 21.0392L15.8127 21.8174Z" fill="white"/>
<path d="M8.99103 28.133L7.65174 28.125C7.64397 27.8591 7.69061 27.5944 7.78882 27.3471C7.88702 27.0999 8.03472 26.8753 8.22284 26.6872C8.41095 26.499 8.63553 26.3513 8.88278 26.2531C9.13003 26.1549 9.39475 26.1083 9.66067 26.1161C9.9266 26.1083 10.1913 26.1549 10.4386 26.2531C10.6858 26.3513 10.9104 26.499 11.0985 26.6872C11.2866 26.8753 11.4343 27.0999 11.5325 27.3471C11.6307 27.5944 11.6774 27.8591 11.6696 28.125H10.3303C10.3392 28.0349 10.3279 27.9439 10.2974 27.8586C10.2669 27.7734 10.2178 27.6959 10.1538 27.6319C10.0897 27.5678 10.0123 27.5188 9.92704 27.4883C9.84178 27.4578 9.7508 27.4465 9.66067 27.4554C9.56988 27.4467 9.47829 27.4583 9.39256 27.4894C9.30682 27.5205 9.22908 27.5703 9.16497 27.6352C9.10086 27.7001 9.052 27.7784 9.02191 27.8645C8.99183 27.9506 8.98128 28.0424 8.99103 28.133Z" fill="white"/>
<path d="M23.0535 24.1068C22.1264 24.1068 21.2201 23.8319 20.4493 23.3168C19.6784 22.8018 19.0776 22.0697 18.7228 21.2131C18.368 20.3566 18.2752 19.4141 18.4561 18.5048C18.6369 17.5955 19.0834 16.7603 19.7389 16.1048C20.3945 15.4492 21.2297 15.0028 22.139 14.8219C23.0483 14.641 23.9908 14.7338 24.8473 15.0886C25.7039 15.4434 26.4359 16.0442 26.951 16.8151C27.4661 17.5859 27.741 18.4922 27.741 19.4193C27.7396 20.6621 27.2453 21.8535 26.3665 22.7323C25.4877 23.6111 24.2963 24.1054 23.0535 24.1068ZM23.0535 16.0711C22.3913 16.0711 21.7439 16.2675 21.1933 16.6354C20.6427 17.0033 20.2136 17.5262 19.9602 18.138C19.7067 18.7498 19.6404 19.423 19.7696 20.0725C19.8988 20.722 20.2177 21.3186 20.686 21.7869C21.1542 22.2551 21.7508 22.574 22.4003 22.7032C23.0498 22.8324 23.723 22.7661 24.3348 22.5127C24.9466 22.2592 25.4695 21.8301 25.8374 21.2795C26.2053 20.7289 26.4017 20.0815 26.4017 19.4193C26.4007 18.5316 26.0476 17.6806 25.4199 17.0529C24.7922 16.4253 23.9412 16.0722 23.0535 16.0711Z" fill="white"/>
<path d="M3.63387 19.4196H2.29458V9.37498H0.955297C0.822875 9.37495 0.693434 9.33566 0.583338 9.26208C0.473243 9.1885 0.387435 9.08392 0.336763 8.96158C0.286091 8.83923 0.27283 8.70461 0.298657 8.57473C0.324483 8.44486 0.388237 8.32555 0.48186 8.2319L3.83007 4.88368C3.95565 4.75815 4.12595 4.68762 4.30351 4.68762C4.48108 4.68762 4.65137 4.75815 4.77695 4.88368L8.12516 8.2319C8.21879 8.32555 8.28254 8.44486 8.30837 8.57473C8.33419 8.70461 8.32093 8.83923 8.27026 8.96158C8.21959 9.08392 8.13378 9.1885 8.02368 9.26208C7.91359 9.33566 7.78415 9.37495 7.65173 9.37498H6.31244V14.7321H4.97315V8.70534C4.97315 8.52774 5.04371 8.35741 5.16929 8.23183C5.29487 8.10625 5.4652 8.03569 5.6428 8.03569H6.03521L4.30351 6.304L2.57182 8.03569H2.96423C3.14183 8.03569 3.31215 8.10625 3.43773 8.23183C3.56332 8.35741 3.63387 8.52774 3.63387 8.70534V19.4196Z" fill="white"/>
<path d="M4.97318 16.0712H6.31246V17.4105H4.97318V16.0712Z" fill="white"/>
<path d="M40.4642 27.4552H39.1249V20.7588C39.1249 20.5812 39.1955 20.4109 39.3211 20.2853C39.4467 20.1597 39.617 20.0892 39.7946 20.0892H40.187L38.4553 18.3575L36.7236 20.0892H37.116C37.2936 20.0892 37.4639 20.1597 37.5895 20.2853C37.7151 20.4109 37.7857 20.5812 37.7857 20.7588V22.7677H36.4464V21.4284H35.1071C34.9747 21.4284 34.8452 21.3891 34.7351 21.3155C34.625 21.242 34.5392 21.1374 34.4886 21.015C34.4379 20.8927 34.4246 20.7581 34.4505 20.6282C34.4763 20.4983 34.54 20.379 34.6337 20.2854L37.9819 16.9372C38.1074 16.8116 38.2777 16.7411 38.4553 16.7411C38.6329 16.7411 38.8032 16.8116 38.9287 16.9372L42.277 20.2854C42.3706 20.379 42.4343 20.4983 42.4602 20.6282C42.486 20.7581 42.4727 20.8927 42.4221 21.015C42.3714 21.1374 42.2856 21.242 42.1755 21.3155C42.0654 21.3891 41.9359 21.4284 41.8035 21.4284H40.4642V27.4552Z" fill="white"/>
<path d="M39.1249 28.7943H40.4642V30.1336H39.1249V28.7943Z" fill="white"/>
<path d="M7.65179 37.5H6.3125V36.1607H7.65179C7.83067 36.1723 8.00998 36.1456 8.17774 36.0824C8.34549 36.0192 8.49784 35.921 8.6246 35.7942C8.75135 35.6675 8.84961 35.5151 8.91281 35.3474C8.97601 35.1796 9.00269 35.0003 8.99107 34.8214H10.3304C10.3407 35.176 10.2785 35.5289 10.1476 35.8586C10.0167 36.1883 9.81973 36.4877 9.5689 36.7385C9.31808 36.9894 9.01864 37.1863 8.68897 37.3172C8.3593 37.4482 8.00635 37.5104 7.65179 37.5Z" fill="white"/>
</g>
<defs>
<clipPath id="clip0">
<rect width="42.8571" height="42.8571" fill="white" transform="translate(0.285706)"/>
</clipPath>
</defs>
</svg>
