<svg width="55" height="55" viewBox="0 0 55 55" fill="none" xmlns="http://www.w3.org/2000/svg">
<rect opacity="0.1" width="55" height="55" fill="white"/>
<g clip-path="url(#clip0)">
<path d="M15.277 15.366C15.7991 15.8876 16.6061 15.08 16.0839 14.5584L14.5912 13.0672C14.069 12.5456 13.2621 13.3533 13.7843 13.8748L15.277 15.366Z" fill="white"/>
<path d="M9.21007 22.4448L11.2491 22.9907C11.9371 23.1747 12.2495 22.0767 11.5443 21.8879L9.50529 21.342C8.79238 21.1514 8.49708 22.2539 9.21007 22.4448Z" fill="white"/>
<path d="M11.2817 30.5028L9.24267 31.0485C8.53912 31.2369 8.85596 32.334 9.53782 32.1513L11.5768 31.6056C12.2898 31.4147 11.9945 30.312 11.2817 30.5028Z" fill="white"/>
<path d="M15.3663 38.0948L13.8736 39.5859C13.3514 40.1075 14.1584 40.9152 14.6805 40.3935L16.1731 38.9024C16.6953 38.3809 15.8884 37.5732 15.3663 38.0948Z" fill="white"/>
<path d="M39.7332 38.0058C39.2111 37.484 38.4042 38.2919 38.9263 38.8134L40.419 40.3045C40.941 40.8261 41.7481 40.0185 41.2258 39.4969L39.7332 38.0058Z" fill="white"/>
<path d="M45.8004 30.9269L43.7613 30.3811C43.0484 30.1904 42.7533 31.2931 43.4662 31.484L45.5052 32.0297C46.1932 32.2139 46.5055 31.1157 45.8004 30.9269Z" fill="white"/>
<path d="M43.5807 22.8886C43.6295 22.8886 43.6792 22.8823 43.7286 22.8691L45.7677 22.3232C46.4806 22.1323 46.1853 21.0291 45.4724 21.2204L43.4334 21.7662C42.7946 21.9373 42.9429 22.8886 43.5807 22.8886Z" fill="white"/>
<path d="M39.2409 15.444C39.3869 15.444 39.5329 15.3884 39.6444 15.2771L41.137 13.7859C41.6592 13.2643 40.8523 12.4566 40.3301 12.9783L38.8375 14.4695C38.4983 14.8082 38.7616 15.444 39.2409 15.444Z" fill="white"/>
<path d="M31.608 11.1453C31.8875 11.2203 32.2317 11.0235 32.3072 10.7418L32.8536 8.70484C33.0447 7.99193 31.9421 7.69625 31.751 8.409L31.2046 10.446C31.1229 10.7506 31.3035 11.0636 31.608 11.1453Z" fill="white"/>
<path d="M22.5813 10.7744C22.7692 11.4748 23.8757 11.1937 23.6839 10.4785L23.1375 8.44157C22.9463 7.72881 21.8437 8.02449 22.0349 8.7374L22.5813 10.7744Z" fill="white"/>
<path d="M40.2463 22.268C40.2463 19.7073 38.4977 17.5468 36.1309 16.9158C35.9617 15.9009 35.4579 14.9706 34.6908 14.2684C32.5173 12.2226 28.8651 12.8856 27.5054 15.4537C27.3815 15.2277 27.2384 15.0117 27.0773 14.8086C25.9098 13.3367 23.9167 12.7096 22.1176 13.2474C20.4351 13.7505 19.1686 15.2023 18.8794 16.9184C17.9137 17.1772 17.0221 17.6943 16.3199 18.4206C15.8082 18.95 16.6257 19.7467 17.1406 19.2141C17.9658 18.3606 19.1201 17.8711 20.3076 17.8711C21.063 17.8452 21.0632 16.7555 20.3076 16.7295H20.0911C20.4147 15.6046 21.3024 14.6827 22.4447 14.3411C23.8004 13.9356 25.3028 14.4086 26.183 15.5182C26.6465 16.1022 26.9112 16.8284 26.9341 17.5738L26.9341 36.0706C26.8914 37.4226 26.038 38.6656 24.7836 39.186C23.4831 39.7258 21.9037 39.3942 20.928 38.3775C20.5324 37.9653 20.245 37.4609 20.0901 36.917H20.3075C21.0366 36.917 21.0509 35.7942 20.322 35.7755C18.6019 35.7316 17.088 34.8135 16.3709 33.3796C16.0692 32.7762 15.988 32.1919 15.8975 31.5334C15.8453 29.3112 15.8672 27.0739 15.8883 24.9098C15.8975 23.975 15.9069 23.0084 15.9105 22.0459C15.9133 21.3076 14.7717 21.3042 14.7689 22.0416C14.7571 25.2471 14.6806 28.347 14.757 31.5935C14.8162 33.9855 16.5382 36.122 18.8765 36.7129C19.0269 37.6307 19.4562 38.4929 20.1042 39.1681C20.7571 39.8484 21.5941 40.2968 22.4857 40.4863C22.4645 40.9528 22.621 41.4138 22.9355 41.7612C21.9946 42.7787 22.6245 44.4815 23.9967 44.6502C23.5602 45.7507 24.4336 47.0235 25.624 46.9997H29.386C30.5758 47.0236 31.4506 45.7504 31.0133 44.6501C32.3862 44.4812 33.015 42.7782 32.0745 41.7611C32.3874 41.4154 32.5443 40.957 32.5243 40.4925C34.3415 40.1335 35.8504 38.562 36.1307 36.7306C38.4976 36.0996 40.2462 33.9391 40.2462 31.3784V22.268H40.2463ZM29.3862 45.8581H25.6242C24.845 45.8315 24.83 44.7141 25.6061 44.665H29.4043C30.1809 44.7144 30.1648 45.8318 29.3862 45.8581ZM30.7862 43.5233H24.2242C23.4694 43.5005 23.4201 42.4276 24.1658 42.3328C24.1852 42.3335 24.2047 42.3338 24.2242 42.3338H27.0485C27.7866 42.3338 27.7866 41.1922 27.0485 41.1922H24.2907C23.9301 41.1504 23.6892 40.9621 23.6276 40.5861C24.1675 40.5669 24.7078 40.4536 25.2212 40.2405C26.2034 39.8329 27.0004 39.0915 27.5005 38.1835C28.2606 39.5682 29.7092 40.5244 31.3829 40.589C31.2918 41.0876 31.0032 41.1917 30.5495 41.1922C29.8115 41.1922 29.8115 42.3338 30.5495 42.3338C30.6476 42.3344 30.7465 42.3361 30.8446 42.3328C31.5903 42.4278 31.5411 43.5004 30.7862 43.5233ZM39.1047 31.3784C39.1047 33.8028 37.13 35.7752 34.7027 35.7752C33.9475 35.801 33.947 36.8908 34.7027 36.9169H34.9224C33.795 40.711 28.266 40.0453 28.0761 36.07L28.0762 17.5748C28.2687 13.5977 33.7969 12.9385 34.9224 16.7294H34.7027C34.3875 16.7294 34.1319 16.9849 34.1319 17.3002C34.1319 17.6156 34.3875 17.8711 34.7027 17.8711C37.13 17.8711 39.1047 19.8435 39.1047 22.2679V31.3784Z" fill="white"/>
<path d="M35.0266 30.9817C32.5057 30.9817 30.4548 33.0308 30.4548 35.5494C30.4548 35.8647 30.7104 36.1202 31.0257 36.1202C31.3409 36.1202 31.5965 35.8647 31.5965 35.5494C31.5965 33.6603 33.1352 32.1233 35.0266 32.1233C35.7806 32.0984 35.7834 31.0079 35.0266 30.9817Z" fill="white"/>
<path d="M19.9837 32.1233C21.8751 32.1233 23.4138 33.6603 23.4138 35.5494C23.4138 35.8647 23.6694 36.1202 23.9847 36.1202C24.2999 36.1202 24.5555 35.8647 24.5555 35.5494C24.5555 33.0308 22.5046 30.9817 19.9837 30.9817C19.2287 31.0079 19.2275 32.0968 19.9837 32.1233Z" fill="white"/>
<path d="M23.9845 18.0922C23.6692 18.0922 23.4137 18.3477 23.4137 18.663C23.4137 20.5521 21.8749 22.0891 19.9835 22.0891C19.6683 22.0891 19.4127 22.3446 19.4127 22.66C19.4127 22.9753 19.6683 23.2308 19.9835 23.2308C22.5045 23.2308 24.5553 21.1817 24.5553 18.663C24.5553 18.3477 24.2997 18.0922 23.9845 18.0922Z" fill="white"/>
<path d="M35.0266 22.0891C33.1352 22.0891 31.5965 20.5521 31.5965 18.663C31.5965 18.3477 31.3409 18.0922 31.0256 18.0922C30.7104 18.0922 30.4548 18.3477 30.4548 18.663C30.4548 21.1816 32.5057 23.2307 35.0266 23.2307C35.7815 23.2046 35.7828 22.1156 35.0266 22.0891Z" fill="white"/>
<path d="M24.3886 24.6042C24.1657 24.3812 23.8044 24.381 23.5813 24.6038C22.9875 25.197 22.6605 25.9852 22.6605 26.8231C22.6605 27.6612 22.9875 28.4494 23.5813 29.0425C24.1034 29.5641 24.9104 28.7565 24.3882 28.235C23.612 27.4907 23.612 26.1557 24.3882 25.4114C24.6112 25.1887 24.6113 24.8273 24.3886 24.6042Z" fill="white"/>
<path d="M30.5901 29.0422C30.8592 29.2653 31.1283 29.2653 31.3974 29.0426C32.617 27.8733 32.617 25.773 31.3974 24.6039C30.8753 24.0822 30.0683 24.8899 30.5905 25.4114C31.3668 26.1558 31.3667 27.4907 30.5905 28.235C30.3675 28.4577 30.3674 28.8191 30.5901 29.0422Z" fill="white"/>
</g>
<defs>
<clipPath id="clip0">
<rect width="39" height="39" fill="white" transform="translate(8 8)"/>
</clipPath>
</defs>
</svg>
