<svg width="55" height="55" viewBox="0 0 55 55" fill="none" xmlns="http://www.w3.org/2000/svg">
<rect opacity="0.1" width="55" height="55" fill="white"/>
<path d="M46.4287 8H44.0481C43.8999 8 43.7574 8.05759 43.6509 8.16072L39.3084 12.3622C39.0816 12.5816 39.0757 12.9433 39.2951 13.17C39.5144 13.3967 39.876 13.4027 40.1029 13.1833L44.2792 9.14258H45.8574V23.1255L44.7347 24.2202L36.8475 16.333L38.3514 14.8779C38.5782 14.6585 38.5842 14.2968 38.3648 14.0701C38.1453 13.8432 37.7837 13.8373 37.557 14.0567L35.6357 15.9156C35.5256 16.0221 35.4629 16.1684 35.4616 16.3215C35.4603 16.4747 35.5206 16.6219 35.6289 16.7301L36.0636 17.1648L33.683 19.5461C32.7268 19.0094 31.5042 18.747 29.7571 18.9871L21.7846 20.0854L18.9002 17.2011L19.3711 16.7302C19.4794 16.622 19.5397 16.4747 19.5384 16.3215C19.5371 16.1684 19.4745 16.0222 19.3643 15.9157L14.4371 11.1483C14.2104 10.929 13.8486 10.9349 13.6293 11.1617C13.4099 11.3884 13.4158 11.7501 13.6426 11.9695L18.1526 16.333L10.2653 24.2202L9.14258 23.1255V9.14258H10.7208L11.8912 10.275C12.118 10.4945 12.4797 10.4885 12.699 10.2617C12.9184 10.0349 12.9125 9.67327 12.6857 9.45389L11.3491 8.16072C11.2426 8.05759 11.1002 8 10.9519 8H8.57129C8.25579 8 8 8.25579 8 8.57129V23.3663C8 23.5203 8.06216 23.6678 8.17245 23.7753L9.87154 25.4321C9.98253 25.5403 10.1265 25.5943 10.2703 25.5943C10.4166 25.5943 10.5628 25.5385 10.6743 25.427L11.1393 24.962L14.3855 28.2081C13.8965 28.9208 13.6325 29.7628 13.6323 30.6457C13.6319 31.8002 14.0812 32.8854 14.8971 33.7015L15.0461 33.8504L14.3157 34.5809C13.3743 35.5222 13.3743 37.054 14.3157 37.9953L14.3324 38.012C14.7471 38.4268 15.2762 38.6585 15.8192 38.7079C15.5566 39.5399 15.7538 40.4869 16.4123 41.1454L16.4289 41.162C16.8848 41.6181 17.4912 41.8692 18.1361 41.8692C18.5091 41.8692 18.8689 41.7847 19.1944 41.6257C19.2732 42.1105 19.4986 42.5759 19.8717 42.949C20.3447 43.4221 20.9659 43.6586 21.5872 43.6586C21.8006 43.6586 22.0138 43.63 22.2211 43.5742C22.2559 44.145 22.4904 44.706 22.9257 45.1413C23.3839 45.5996 23.993 45.852 24.641 45.8522H24.6417C25.2847 45.8522 25.8893 45.6033 26.3468 45.1509L27.4865 46.2902C27.9437 46.7478 28.5517 46.9998 29.1987 46.9998C29.8456 46.9998 30.4537 46.7479 30.9112 46.2904L30.9171 46.2845C31.3533 45.8487 31.6022 45.2758 31.6246 44.6627C31.8013 44.7032 31.9839 44.7246 32.1697 44.7246C32.8112 44.7246 33.4144 44.4769 33.8703 44.0267C33.8766 44.0208 33.8829 44.0149 33.889 44.0088C34.3506 43.5467 34.5857 42.9428 34.5954 42.3358C34.7542 42.3678 34.9156 42.3842 35.0771 42.3842C35.6976 42.3842 36.3183 42.1478 36.7912 41.675L36.7962 41.6699C37.4864 40.9798 37.6714 39.9735 37.3527 39.1131C37.8921 39.0505 38.3914 38.8105 38.7812 38.4208L38.7875 38.4145C39.7317 37.4703 39.7317 35.9338 38.7875 34.9896L37.6481 33.8503L39.2192 32.2792C40.3583 31.14 40.8352 29.5863 40.6526 28.0983L43.8252 24.9263L44.3256 25.4268C44.437 25.5383 44.5833 25.5941 44.7296 25.5941C44.8734 25.5941 45.0174 25.5401 45.1284 25.4319L46.8275 23.7751C46.9378 23.6676 46.9999 23.5201 46.9999 23.3661V8.57129C47 8.25579 46.7442 8 46.4287 8V8ZM18.0923 18.0091L20.3644 20.2812L19.9217 20.3422C19.2226 20.4385 18.6029 20.8009 18.1767 21.3627C17.7504 21.9247 17.5688 22.619 17.6654 23.3175C17.7203 23.7149 17.8617 24.0864 18.077 24.4114L15.1407 27.3477L11.9472 24.1541L18.0923 18.0091ZM15.1236 37.1875C14.6277 36.6917 14.6277 35.8848 15.1236 35.3889L16.2571 34.2554C16.2574 34.2551 16.2577 34.2548 16.258 34.2545C16.2583 34.2542 16.2586 34.2539 16.2589 34.2536L18.4054 32.1071C18.6548 31.8577 18.9824 31.733 19.3099 31.733C19.6375 31.733 19.9651 31.8577 20.2145 32.1071L20.2207 32.1133C20.7195 32.6121 20.7195 33.4237 20.2207 33.9224L19.6941 34.4491C19.6941 34.4491 19.694 34.4492 19.6939 34.4492L16.9388 37.2043C16.443 37.7002 15.6362 37.7001 15.1403 37.2042L15.1236 37.1875ZM18.136 40.7267C17.7963 40.7267 17.4769 40.5944 17.2367 40.3542L17.2201 40.3376C16.9798 40.0973 16.8475 39.7779 16.8475 39.4382C16.8475 39.0985 16.9798 38.7791 17.2201 38.5388L17.7466 38.0122C17.7466 38.0122 17.7467 38.0121 17.7468 38.012L20.5019 35.257C20.7512 35.0077 21.0788 34.883 21.4063 34.883C21.7339 34.883 22.0615 35.0077 22.3109 35.257L22.3171 35.2633C22.8159 35.7621 22.8159 36.5736 22.3171 37.0724L19.0354 40.3541C18.7952 40.5944 18.4758 40.7267 18.136 40.7267ZM20.6796 42.1411C20.1791 41.6406 20.1788 40.8267 20.6789 40.3265L23.6522 37.3532C23.9011 37.1043 24.2285 36.9798 24.5561 36.9798C24.8827 36.9798 25.2094 37.1036 25.4585 37.3512C25.7014 37.5925 25.8355 37.9138 25.8363 38.2559C25.8372 38.5977 25.7048 38.9192 25.4637 39.1613L22.4943 42.1418C21.9941 42.642 21.1801 42.6416 20.6796 42.1411ZM24.6417 44.7097H24.6413C24.2985 44.7096 23.9762 44.576 23.7337 44.3335C23.4912 44.091 23.3576 43.7687 23.3575 43.4259C23.3575 43.0832 23.4908 42.7611 23.733 42.5189L26.7063 39.5456C26.9552 39.2967 27.2826 39.1722 27.6101 39.1722C27.9367 39.1722 28.2635 39.296 28.5126 39.5435C28.7553 39.7848 28.8895 40.1062 28.8903 40.4483C28.8911 40.7901 28.7588 41.1116 28.5177 41.3537L25.9459 43.935C25.9446 43.9362 25.9432 43.9373 25.9419 43.9386C25.9405 43.9399 25.9394 43.9415 25.938 43.9428L25.5481 44.3342C25.3062 44.5764 24.9842 44.7097 24.6417 44.7097ZM30.1094 45.4765L30.1033 45.4826C29.8616 45.7243 29.5403 45.8574 29.1988 45.8574C28.8573 45.8574 28.5363 45.7243 28.2946 45.4824L27.1535 44.3419L28.9651 42.5236L30.1096 43.6682C30.3511 43.9095 30.4842 44.2305 30.4842 44.5723C30.4842 44.9139 30.3512 45.2349 30.1094 45.4765ZM38.4114 31.4714L36.8403 33.0426L35.1541 31.3563C34.931 31.1332 34.5693 31.1332 34.3463 31.3563C34.1231 31.5794 34.1231 31.9411 34.3463 32.1642L36.4348 34.2527C36.4353 34.2532 36.4358 34.2539 36.4363 34.2545C36.4369 34.255 36.4375 34.2555 36.438 34.256L37.9796 35.7976C38.4783 36.2963 38.4783 37.1079 37.9796 37.6066L37.9733 37.6129C37.4746 38.1117 36.663 38.1117 36.1642 37.6129L32.8825 34.3312C32.6594 34.1081 32.2977 34.1081 32.0747 34.3312C31.8515 34.5543 31.8515 34.916 32.0747 35.139L32.7053 35.7697C32.7058 35.7702 32.7062 35.7707 32.7067 35.7712L35.9884 39.053C36.23 39.2946 36.363 39.6158 36.363 39.9575C36.363 40.2992 36.2299 40.6205 35.9871 40.8633L35.9821 40.8683C35.4833 41.3671 34.6717 41.367 34.173 40.8683L33.8922 40.5875C33.891 40.5863 33.8899 40.585 33.8888 40.5838L33.0824 39.7777L30.8913 37.5865C30.8896 37.5849 30.8878 37.5835 30.8861 37.5818L30.6065 37.3023C30.3834 37.0791 30.0217 37.0791 29.7986 37.3023C29.5755 37.5254 29.5756 37.8872 29.7987 38.1102L32.4047 40.7157L33.082 41.393C33.5759 41.8888 33.5787 42.6922 33.0903 43.1915C33.0847 43.1967 33.0792 43.202 33.0738 43.2073C32.8325 43.4489 32.5114 43.5819 32.1697 43.5819C31.828 43.5819 31.5069 43.4489 31.265 43.2066L29.7129 41.6552C29.9224 41.291 30.0341 40.8768 30.033 40.4453C30.0314 39.7976 29.7775 39.1895 29.3181 38.7329C28.6835 38.1021 27.7827 37.8968 26.9744 38.1151C26.9398 37.5194 26.6907 36.9646 26.264 36.5405C25.6039 35.8844 24.6559 35.6885 23.8234 35.951C23.7748 35.405 23.5423 34.8722 23.1251 34.4552L23.1189 34.4489C22.7019 34.0319 22.1693 33.7994 21.6233 33.7507C21.887 32.916 21.6892 31.9657 21.0287 31.3052L21.0224 31.2989C20.0782 30.3547 18.5418 30.3547 17.5975 31.2989L15.8541 33.0423L15.7051 32.8933C14.466 31.6542 14.4667 29.6373 15.7066 28.3974L18.8992 25.2047C19.4214 25.5266 20.0338 25.656 20.6493 25.57L25.4801 24.8948C25.8163 24.8478 26.1598 24.9722 26.3984 25.2276C27.0992 25.9778 27.9873 26.5038 28.9512 26.7689L32.6234 30.4411C32.7349 30.5527 32.8812 30.6085 33.0273 30.6085C33.1735 30.6085 33.3198 30.5527 33.4313 30.4411C33.6544 30.218 33.6544 29.8563 33.4313 29.6333L30.7527 26.9547C30.8836 26.9462 31.0146 26.9334 31.1455 26.9153C31.4581 26.8723 31.6766 26.584 31.6335 26.2714C31.5904 25.9588 31.302 25.7404 30.9896 25.7835C29.5979 25.975 28.1937 25.4758 27.2333 24.4476C26.741 23.9206 26.0262 23.6647 25.3219 23.7632L20.4912 24.4385C20.093 24.494 19.6977 24.3914 19.3774 24.1493C19.058 23.9079 18.852 23.5568 18.7972 23.1607C18.7425 22.7649 18.8454 22.3715 19.087 22.0529C19.3289 21.7342 19.6807 21.5285 20.0776 21.4737L29.9129 20.1189C32.9462 19.7019 33.8947 20.9098 35.3305 22.7377C35.5034 22.9577 35.6821 23.1852 35.87 23.4161C35.8825 23.4315 35.8957 23.4461 35.9094 23.4598L35.9093 23.4598L38.4099 25.9597C39.9293 27.4803 39.9301 29.9527 38.4114 31.4714ZM40.3212 26.8143C40.0754 26.2092 39.7078 25.6424 39.2177 25.1522L36.7401 22.6753C36.5642 22.4587 36.3938 22.242 36.2291 22.0322C35.7199 21.384 35.2203 20.7491 34.6235 20.2216L36.8716 17.973L43.0173 24.1187L40.3212 26.8143Z" fill="white"/>
</svg>
