<svg width="100" height="100" viewBox="0 0 100 100" fill="none" xmlns="http://www.w3.org/2000/svg">
<circle cx="50" cy="50" r="50" fill="#FBF8F7"/>
<path d="M50 25.1109C47.765 25.1171 45.5411 25.4258 43.3889 26.0287L44.5867 28.922C49.2388 27.6902 54.1673 28.0261 58.6093 29.8776C63.0513 31.7291 66.7593 34.9931 69.1593 39.1644C71.5594 43.3356 72.5177 48.1816 71.886 52.9525C71.2543 57.7233 69.0678 62.1529 65.6649 65.5558C62.262 68.9587 57.8324 71.1452 53.0616 71.7769C48.2907 72.4086 43.4447 71.4503 39.2735 69.0502C35.1022 66.6502 31.8382 62.9422 29.9867 58.5002C28.1352 54.0582 27.7993 49.1297 29.0311 44.4776L26.1378 43.2642C24.7258 48.2871 24.9281 53.6267 26.716 58.5284C28.5039 63.43 31.7871 67.6458 36.1014 70.58C40.4158 73.5142 45.5431 75.0183 50.7588 74.8797C55.9746 74.7412 61.0148 72.967 65.1673 69.808C69.3198 66.6489 72.3746 62.2648 73.8998 57.2751C75.4249 52.2855 75.3435 46.9427 73.6669 42.0018C71.9903 37.061 68.8033 32.772 64.5564 29.741C60.3096 26.71 55.2175 25.0904 50 25.1109V25.1109Z" fill="#003399"/>
<path d="M33.5889 46.4223C32.8125 49.9699 33.2055 53.6734 34.709 56.9791C36.2124 60.2848 38.7457 63.0149 41.9298 64.7612C45.1139 66.5074 48.7778 67.176 52.3734 66.6668C55.9691 66.1576 59.3033 64.4981 61.8773 61.9364C64.4514 59.3748 66.127 56.0486 66.6536 52.4555C67.1801 48.8623 66.5293 45.1953 64.7984 42.0027C63.0676 38.8102 60.3497 36.2638 57.0513 34.7444C53.753 33.225 50.0513 32.8142 46.5001 33.5734L47.4645 36.0001C50.4859 35.4344 53.6091 35.8523 56.3756 37.1923C59.142 38.5324 61.406 40.724 62.8351 43.4456C64.2642 46.1671 64.7832 49.2751 64.3158 52.3133C63.8484 55.3514 62.4194 58.1598 60.2384 60.3259C58.0574 62.4921 55.2394 63.902 52.1981 64.3487C49.1568 64.7954 46.0525 64.2553 43.3407 62.8077C40.629 61.3601 38.4528 59.0812 37.1316 56.3057C35.8104 53.5302 35.4138 50.4042 36.0001 47.3867L33.5889 46.4223Z" fill="#003399"/>
<path d="M50 56.362C48.4408 56.3389 46.9446 55.7426 45.7969 54.6868C44.6493 53.6309 43.9305 52.1895 43.7778 50.6376L41.2422 49.5798V49.9998C41.2423 51.7543 41.7639 53.4693 42.7407 54.9268C43.7174 56.3843 45.1053 57.5186 46.7281 58.1857C48.3509 58.8528 50.1353 59.0225 51.8547 58.6734C53.5742 58.3242 55.1511 57.4719 56.3851 56.2247C57.6192 54.9775 58.4547 53.3917 58.7856 51.6686C59.1165 49.9456 58.9279 48.1631 58.2436 46.5475C57.5594 44.9318 56.4104 43.556 54.9426 42.5948C53.4748 41.6335 51.7545 41.1302 50 41.1487H49.6267L50.6689 43.7776C52.2237 44.0133 53.635 44.8193 54.6282 46.0385C55.6214 47.2577 56.1253 48.8028 56.0419 50.3732C55.9584 51.9435 55.2935 53.4265 54.1767 54.5336C53.0599 55.6406 51.571 56.2924 50 56.362V56.362Z" fill="#003399"/>
<path d="M34.7556 42.7511C34.8992 42.8977 35.0949 42.9815 35.3001 42.9845H40.9779L49.3312 51.3378C49.6241 51.6328 50.0222 51.7993 50.4379 51.8008C50.8536 51.8022 51.2529 51.6385 51.5479 51.3456C51.8428 51.0527 52.0094 50.6546 52.0108 50.2389C52.0123 49.8231 51.8486 49.4239 51.5556 49.1289L43.0468 40.6667V35.2378C43.0438 35.0326 42.96 34.837 42.8134 34.6934L34.1179 25.9978C34.0092 25.8912 33.8716 25.8189 33.7221 25.7898C33.5727 25.7606 33.418 25.776 33.2772 25.834C33.1364 25.8919 33.0158 25.99 32.9302 26.1159C32.8446 26.2418 32.7978 26.39 32.7956 26.5422V32.7645H26.6668C26.5145 32.7666 26.3663 32.8134 26.2404 32.899C26.1145 32.9846 26.0165 33.1052 25.9585 33.246C25.9005 33.3868 25.8851 33.5415 25.9143 33.6909C25.9434 33.8404 26.0157 33.978 26.1223 34.0867L34.7556 42.7511Z" fill="#003399"/>
</svg>
