<svg width="55" height="55" viewBox="0 0 55 55" fill="none" xmlns="http://www.w3.org/2000/svg">
<rect opacity="0.1" width="55" height="55" fill="white"/>
<g clip-path="url(#clip0)">
<path d="M46.8282 34.6677L44.1381 31.9777C43.9086 31.7482 43.5366 31.7482 43.3072 31.9777C43.0777 32.2071 43.0777 32.5791 43.3072 32.8085L43.6818 33.1831L34.6508 42.2143L31.429 38.9925L40.4602 29.9615L41.3809 30.8821C41.6104 31.1116 41.9824 31.1116 42.2118 30.8821C42.4412 30.6527 42.4412 30.2807 42.2118 30.0513L40.8789 28.7184C39.823 27.6356 39.1291 26.4019 38.1516 25.2442C39.2683 23.7444 38.0865 21.5485 36.2262 21.6398C36.2877 20.3335 35.1715 19.2114 33.861 19.2734C33.9225 17.9678 32.8021 16.8437 31.4941 16.9077C31.5955 14.7524 28.9017 13.783 27.5 15.3396L27.3617 15.2013C26.4803 14.3199 25.0462 14.3199 24.1648 15.2013C23.6964 15.6696 23.4769 16.2941 23.5064 16.9088C22.1981 16.8462 21.0774 17.9633 21.1394 19.2748C20.6182 19.2501 20.0905 19.4049 19.6564 19.738C18.8577 19.4563 17.9844 19.5585 17.211 20.0348C16.2575 20.6221 15.6608 21.6437 15.6462 22.7086L14.9806 27.8595L8.17233 34.6677C7.94288 34.8972 7.94288 35.2692 8.17233 35.4985L18.0343 45.3605C18.1489 45.4753 18.2993 45.5326 18.4497 45.5326C18.6 45.5326 18.7504 45.4753 18.8651 45.3605L24.8176 39.408C25.047 39.1786 25.047 38.8066 24.8176 38.5772L23.8175 37.5772C24.9403 36.4545 26.0663 35.8858 27.5001 35.2381C28.9228 35.8809 30.0699 36.4645 31.1827 37.5772L30.1826 38.5772C30.0725 38.6873 30.0106 38.8368 30.0106 38.9926C30.0106 39.1484 30.0725 39.2979 30.1826 39.408L36.1351 45.3605C36.2499 45.4752 36.4003 45.5326 36.5506 45.5326C36.701 45.5326 36.8514 45.4753 36.9661 45.3605L46.8281 35.4986C46.9383 35.3885 47.0001 35.239 47.0001 35.0832C47.0001 34.9274 46.9383 34.7778 46.8282 34.6677ZM36.3344 22.8121C37.0951 22.8131 37.6363 23.6406 37.3273 24.3375C36.8551 23.8557 36.3747 23.382 35.8977 22.905C36.0433 22.8739 36.1889 22.8431 36.3344 22.8121ZM33.9681 20.4458C34.7357 20.4467 35.2692 21.2715 34.9611 21.9707C34.456 21.4771 33.8852 21.0316 33.2467 20.7231C33.4529 20.5415 33.6933 20.4491 33.9681 20.4458ZM18.0361 24.8036L17.8977 24.6652C17.4745 24.242 17.4745 23.5533 17.8977 23.1301C18.1094 22.9185 18.3873 22.8127 18.6652 22.8127C18.9432 22.8127 19.2212 22.9185 19.4328 23.1301L19.571 23.2684L18.8035 24.0359L18.0361 24.8036ZM24.9957 16.0321C25.2074 15.8205 25.4853 15.7147 25.7633 15.7147C26.0412 15.7147 26.3192 15.8205 26.5308 16.0321L26.6691 16.1704L25.134 17.7056L24.9956 17.5672C24.5725 17.144 24.5725 16.4553 24.9957 16.0321ZM22.3118 19.1657C22.3118 18.8758 22.4247 18.6032 22.6297 18.3982C22.8414 18.1866 23.1193 18.0807 23.3973 18.0807C23.6752 18.0807 23.9532 18.1866 24.1648 18.3982L24.3031 18.5365L23.5356 19.304L22.768 20.0716L22.6297 19.9332C22.4247 19.7282 22.3118 19.4556 22.3118 19.1657ZM21.0312 20.4467C21.3092 20.4467 21.5872 20.5525 21.7988 20.7641L21.9371 20.9025L20.4019 22.4376L20.2636 22.2993C19.8404 21.876 19.8404 21.1874 20.2636 20.7641C20.4754 20.5525 20.7532 20.4467 21.0312 20.4467ZM17.8272 21.0352C18.0517 20.8971 18.4416 20.7197 18.905 20.7658C18.804 21.0475 18.7602 21.3452 18.7744 21.6409C18.0196 21.6047 17.2725 21.964 16.8305 22.5774C16.8913 21.971 17.2684 21.3795 17.8272 21.0352ZM18.4497 44.1142L9.41865 35.0831L10.4878 34.014L19.5188 43.0451L18.4497 44.1142ZM30.1186 35.131C29.7042 34.8734 29.2645 34.6561 28.808 34.4833C29.3931 34.0621 29.8873 33.5425 30.3949 33.035C30.6244 32.8055 30.6244 32.4335 30.3949 32.2041C30.1654 31.9747 29.7935 31.9747 29.564 32.2041C28.8514 32.9167 28.1552 33.6064 27.2388 34.0619C25.6331 34.8648 24.279 35.454 22.9869 36.7462L17.9914 31.7507C17.762 31.5213 17.3899 31.5213 17.1606 31.7507C16.9311 31.9802 16.9311 32.3522 17.1606 32.5815L23.5715 38.9925L20.3499 42.2142L11.3186 33.1832L14.5402 29.9615L15.122 30.5433C15.3514 30.7727 15.7234 30.7727 15.9528 30.5433C16.1822 30.3138 16.1822 29.9418 15.9528 29.7124L15.3711 29.1307L15.953 28.5487C16.0448 28.4569 16.1036 28.3373 16.1203 28.2086L16.5683 24.7415C16.7823 25.2756 17.2232 25.6527 17.6195 26.0488C17.8492 26.2787 18.2266 26.275 18.4515 26.05L28.4696 16.0318C29.4486 15.0528 30.9871 16.5851 30.005 17.5672C29.8903 17.6819 29.8329 17.8323 29.8329 17.9827C29.8329 18.133 29.8903 18.2834 30.005 18.3981C30.2345 18.6275 30.6064 18.6275 30.8359 18.3981C31.8262 17.4078 33.361 18.943 32.3708 19.933C32.2561 20.0477 32.1988 20.1981 32.1988 20.3484C32.1988 20.2126 27.5315 20.276 27.154 20.276C24.5963 20.276 24.1716 24.064 26.6992 24.5573L29.6124 25.4201C30.0673 25.5547 30.4854 25.8035 30.8215 26.1396L33.225 28.5431L31.529 30.2392C31.2995 30.4686 31.2995 30.8405 31.5289 31.07C31.7584 31.2994 32.1304 31.2994 32.3597 31.07L34.4713 28.9585C34.5815 28.8484 34.6434 28.6989 34.6434 28.5431C34.6434 28.3873 34.5815 28.2378 34.4714 28.1277L31.6525 25.3088C31.1782 24.8345 30.588 24.4834 29.946 24.2935L27.0041 23.4221C25.9202 23.1014 25.8186 21.4511 27.1541 21.4511H31.3285C32.4624 21.4511 33.4322 22.101 34.2071 22.876C34.2071 22.876 36.7553 25.4346 36.9277 25.6274C37.9319 26.7443 38.5744 28.0754 39.6295 29.1303L32.0137 36.7461C31.4218 36.1544 30.8349 35.5759 30.1186 35.131ZM36.5508 44.1142L35.4817 43.0452L44.5128 34.0141L45.5819 35.0832L36.5508 44.1142Z" fill="white"/>
<path d="M27.5002 11.8436C27.8248 11.8436 28.0877 11.5806 28.0877 11.2561V10.055C28.0877 9.73052 27.8248 9.46747 27.5002 9.46747C27.1758 9.46747 26.9127 9.73052 26.9127 10.055V11.2561C26.9127 11.5806 27.1758 11.8436 27.5002 11.8436Z" fill="white"/>
<path d="M24.1874 12.0609C24.2839 12.2815 24.4995 12.4131 24.7259 12.4131C24.8045 12.4131 24.8844 12.3972 24.961 12.3638C25.2583 12.2337 25.3939 11.8873 25.2639 11.5901L24.7826 10.4896C24.6525 10.1923 24.3061 10.0566 24.0088 10.1868C23.7116 10.3168 23.576 10.6632 23.706 10.9605L24.1874 12.0609Z" fill="white"/>
<path d="M22.0121 13.8902C22.1251 13.9947 22.2682 14.0464 22.4108 14.0464C22.5689 14.0464 22.7265 13.9829 22.8424 13.8577C23.0626 13.6195 23.0481 13.2478 22.8098 13.0275L21.9279 12.212C21.6896 11.9916 21.318 12.0063 21.0977 12.2445C20.8774 12.4827 20.892 12.8544 21.1302 13.0748L22.0121 13.8902Z" fill="white"/>
<path d="M30.0396 12.3637C30.1163 12.3972 30.1961 12.4131 30.2747 12.4131C30.5011 12.4131 30.7169 12.2815 30.8134 12.0608L31.2947 10.9603C31.4246 10.663 31.289 10.3166 30.9917 10.1867C30.6947 10.0568 30.3481 10.1922 30.218 10.4896L29.7367 11.5901C29.6068 11.8873 29.7424 12.2337 30.0396 12.3637Z" fill="white"/>
<path d="M32.5892 14.0464C32.7318 14.0464 32.8749 13.9947 32.9879 13.8902L33.8699 13.0748C34.1081 12.8545 34.1228 12.4828 33.9024 12.2445C33.682 12.0063 33.3103 11.9916 33.0721 12.212L32.1901 13.0275C31.9519 13.2477 31.9373 13.6194 32.1576 13.8577C32.2735 13.9829 32.4311 14.0464 32.5892 14.0464Z" fill="white"/>
<path d="M20.5066 39.6975C20.8624 39.6134 21.0827 39.2568 20.9986 38.9011C20.9145 38.5453 20.5579 38.325 20.2021 38.4091C19.8463 38.4932 19.626 38.8498 19.7101 39.2056C19.7942 39.5614 20.1508 39.7816 20.5066 39.6975Z" fill="white"/>
</g>
<defs>
<clipPath id="clip0">
<rect width="39" height="39" fill="white" transform="translate(8 8)"/>
</clipPath>
</defs>
</svg>
