<svg width="100" height="100" viewBox="0 0 100 100" fill="none" xmlns="http://www.w3.org/2000/svg">
<circle cx="50" cy="50" r="50" fill="#FBF8F7"/>
<path d="M41.25 30.75C37.806 30.75 35.055 33.27 34.4688 36.5477C31.1613 37.3807 28.2913 39.5315 27.0312 42.9457H26.9788L23.2565 53.388C22.4345 55.0562 22.0047 56.8903 22 58.75C22 65.4945 27.5055 71 34.25 71C40.326 71 45.3888 66.534 46.3355 60.7188C47.2858 61.655 48.5755 62.25 50 62.25C51.4245 62.25 52.7125 61.655 53.6645 60.7188C54.6095 66.534 59.674 71 65.75 71C72.4945 71 78 65.4945 78 58.75C78 57.0455 77.65 55.4145 77.0148 53.9375L73.0247 42.7812L72.9688 42.7288V42.671C71.6912 39.5735 68.8597 37.4 65.5312 36.546C64.945 33.2735 62.194 30.75 58.75 30.75C55.5003 30.75 52.8665 32.9987 52.0773 36H47.921C47.1335 32.9987 44.4997 30.75 41.25 30.75V30.75ZM41.25 34.25C43.3325 34.25 44.75 35.6675 44.75 37.75V39.5H55.25V37.75C55.25 35.6675 56.6675 34.25 58.75 34.25C60.8325 34.25 62.25 35.6675 62.25 37.75V39.3355L63.8355 39.5C66.436 39.773 68.676 41.586 69.6875 43.9275C69.705 43.966 69.726 44.001 69.74 44.0395L71.0525 47.7582C69.4036 46.9412 67.5902 46.5103 65.75 46.4982C60.633 46.4982 56.2563 49.678 54.4275 54.1545C53.949 53.4158 53.2932 52.8088 52.5198 52.3888C51.7464 51.9688 50.8801 51.7492 50 51.75C49.1197 51.7492 48.2533 51.969 47.4798 52.3893C46.7064 52.8097 46.0507 53.4172 45.5725 54.1562C43.742 49.6797 39.3653 46.5 34.25 46.5C32.374 46.5 30.5925 46.9427 29 47.704L30.3125 44.148V44.0955C31.3275 41.383 33.4765 39.7835 36.1645 39.5L37.75 39.3355V37.75C37.75 35.6675 39.1675 34.25 41.25 34.25ZM34.25 50C39.1028 50 43 53.8972 43 58.75C43 63.6028 39.1028 67.5 34.25 67.5C29.3972 67.5 25.5 63.6028 25.5 58.75C25.5 57.511 25.8062 56.37 26.2665 55.3025C26.2945 55.2378 26.2892 55.152 26.319 55.0855C27.015 53.5672 28.1324 52.2808 29.5384 51.3792C30.9444 50.4777 32.5798 49.9989 34.25 50V50ZM65.75 50C70.6028 50 74.5 53.8972 74.5 58.75C74.5 63.6028 70.6028 67.5 65.75 67.5C60.8972 67.5 57 63.6028 57 58.75C57 53.8972 60.8972 50 65.75 50ZM50 55.25C50.987 55.25 51.75 56.013 51.75 57C51.75 57.987 50.987 58.75 50 58.75C49.013 58.75 48.25 57.987 48.25 57C48.25 56.013 49.013 55.25 50 55.25Z" fill="#FF6600"/>
</svg>
