<svg width="100" height="100" viewBox="0 0 100 100" fill="none" xmlns="http://www.w3.org/2000/svg">
<g clip-path="url(#clip0)">
<path d="M87.4561 99.9024H12.5293C9.08215 99.9024 6.13906 98.6829 3.70004 96.2439C1.26102 93.8049 0.0415039 90.8618 0.0415039 87.4146V12.4878C0.0415039 9.04065 1.26102 6.09756 3.70004 3.65854C6.13906 1.21951 9.08215 0 12.5293 0H87.4561C90.9033 0 93.8464 1.21951 96.2854 3.65854C98.7244 6.09756 99.9439 9.04065 99.9439 12.4878V87.4146C99.9439 90.8618 98.7244 93.8049 96.2854 96.2439C93.8464 98.6829 90.9033 99.9024 87.4561 99.9024V99.9024ZM25.0171 15.6098C25.0171 14.7642 24.7082 14.0325 24.0903 13.4146C23.4724 12.7967 22.7407 12.4878 21.8952 12.4878H15.6513C14.8057 12.4878 14.074 12.7967 13.4561 13.4146C12.8383 14.0325 12.5293 14.7642 12.5293 15.6098V21.8537C12.5293 22.6992 12.8383 23.4309 13.4561 24.0488C14.074 24.6667 14.8057 24.9756 15.6513 24.9756H21.8952C22.7407 24.9756 23.4724 24.6667 24.0903 24.0488C24.7082 23.4309 25.0171 22.6992 25.0171 21.8537V15.6098ZM25.0171 34.3415C25.0171 33.4959 24.7082 32.7642 24.0903 32.1463C23.4724 31.5285 22.7407 31.2195 21.8952 31.2195H15.6513C14.8057 31.2195 14.074 31.5285 13.4561 32.1463C12.8383 32.7642 12.5293 33.4959 12.5293 34.3415V84.2927C12.5293 85.1382 12.8383 85.8699 13.4561 86.4878C14.074 87.1057 14.8057 87.4146 15.6513 87.4146H21.8952C22.7407 87.4146 23.4724 87.1057 24.0903 86.4878C24.7082 85.8699 25.0171 85.1382 25.0171 84.2927V34.3415ZM87.4561 49.9512C87.4561 44.748 85.635 40.3252 81.9927 36.6829C78.3504 33.0406 73.9277 31.2195 68.7244 31.2195C65.8626 31.2195 62.7244 31.6748 59.3098 32.5854C55.8952 33.4959 52.7895 34.7642 49.9927 36.3902V34.3415C49.9927 33.4959 49.6838 32.7642 49.0659 32.1463C48.448 31.5285 47.7163 31.2195 46.8708 31.2195H40.6269C39.7813 31.2195 39.0496 31.5285 38.4317 32.1463C37.8139 32.7642 37.5049 33.4959 37.5049 34.3415V84.2927C37.5049 85.1382 37.8139 85.8699 38.4317 86.4878C39.0496 87.1057 39.7813 87.4146 40.6269 87.4146H46.8708C47.7163 87.4146 48.448 87.1057 49.0659 86.4878C49.6838 85.8699 49.9927 85.1382 49.9927 84.2927V56.1951C49.9927 52.748 51.2122 49.8049 53.6513 47.3659C56.0903 44.9268 59.0334 43.7073 62.4805 43.7073C65.9277 43.7073 68.8708 44.9268 71.3098 47.3659C73.7488 49.8049 74.9683 52.748 74.9683 56.1951V84.2927C74.9683 85.1382 75.2773 85.8699 75.8952 86.4878C76.513 87.1057 77.2448 87.4146 78.0903 87.4146H84.3342C85.1797 87.4146 85.9114 87.1057 86.5293 86.4878C87.1472 85.8699 87.4561 85.1382 87.4561 84.2927V49.9512Z" fill="#FF6600"/>
</g>
<defs>
<clipPath id="clip0">
<rect width="100" height="99.9024" fill="white"/>
</clipPath>
</defs>
</svg>
