<svg width="100" height="115" viewBox="0 0 100 115" fill="none" xmlns="http://www.w3.org/2000/svg">
<g clip-path="url(#clip0)">
<path d="M50 45.2366C47.6454 45.2375 45.3438 45.9365 43.3865 47.2453C41.4291 48.5541 39.9037 50.4139 39.0032 52.5896C38.1028 54.7652 37.8676 57.1591 38.3275 59.4683C38.7874 61.7776 39.9218 63.8987 41.5871 65.5634C43.2523 67.2281 45.3738 68.3616 47.6833 68.8206C49.9928 69.2797 52.3865 69.0436 54.5618 68.1423C56.7371 67.241 58.5964 65.715 59.9045 63.7571C61.2125 61.7992 61.9107 59.4975 61.9107 57.1428C61.9083 53.985 60.6526 50.9573 58.4193 48.7249C56.186 46.4924 53.1578 45.2378 50 45.2366V45.2366ZM77.8371 36.0848C77.2309 34.5487 76.3156 33.1536 75.148 31.9859C73.9803 30.8182 72.5852 29.903 71.0491 29.2968C66.3616 27.4464 55.2009 27.8616 50 27.8616C44.7991 27.8616 33.6496 27.4308 28.9487 29.2968C27.4126 29.903 26.0175 30.8182 24.8498 31.9859C23.6821 33.1536 22.7668 34.5487 22.1607 36.0848C20.3125 40.7723 20.7254 51.9442 20.7254 57.1406C20.7254 62.337 20.3125 73.4955 22.1696 78.1986C22.7758 79.7347 23.6911 81.1298 24.8587 82.2975C26.0264 83.4652 27.4215 84.3804 28.9576 84.9866C33.6451 86.837 44.8058 86.4218 50.0089 86.4218C55.2121 86.4218 66.3571 86.8526 71.058 84.9866C72.5941 84.3804 73.9892 83.4652 75.1569 82.2975C76.3246 81.1298 77.2399 79.7347 77.846 78.1986C79.7098 73.5111 79.2812 62.3392 79.2812 57.1428C79.2812 51.9464 79.7098 40.7901 77.846 36.087L77.8371 36.0848ZM50 75.4464C46.3799 75.4464 42.8411 74.3729 39.8311 72.3617C36.8211 70.3505 34.4751 67.4918 33.0897 64.1473C31.7044 60.8027 31.3419 57.1225 32.0481 53.572C32.7544 50.0214 34.4976 46.76 37.0574 44.2002C39.6172 41.6404 42.8786 39.8972 46.4292 39.1909C49.9797 38.4847 53.6599 38.8472 57.0045 40.2325C60.349 41.6179 63.2076 43.9639 65.2189 46.9739C67.2301 49.9839 68.3036 53.5227 68.3036 57.1428C68.3065 59.5473 67.8351 61.9287 66.9163 64.1508C65.9975 66.3728 64.6494 68.3917 62.9491 70.092C61.2489 71.7922 59.23 73.1403 57.0079 74.0591C54.7859 74.9779 52.4045 75.4493 50 75.4464V75.4464ZM69.058 42.3437C68.213 42.3442 67.3867 42.094 66.6839 41.6248C65.981 41.1556 65.433 40.4885 65.1093 39.7079C64.7856 38.9273 64.7007 38.0682 64.8653 37.2393C65.0299 36.4104 65.4366 35.6489 66.034 35.0512C66.6314 34.4535 67.3927 34.0464 68.2215 33.8813C69.0503 33.7163 69.9094 33.8008 70.6902 34.1241C71.471 34.4474 72.1384 34.995 72.608 35.6976C73.0775 36.4002 73.3281 37.2263 73.3281 38.0714C73.3305 38.6326 73.222 39.1887 73.0089 39.7079C72.7959 40.2271 72.4824 40.6991 72.0865 41.0968C71.6906 41.4946 71.2201 41.8103 70.7019 42.0258C70.1838 42.2413 69.6282 42.3524 69.067 42.3526L69.058 42.3437ZM89.2857 7.14282H10.7143C7.87268 7.14282 5.14746 8.27165 3.13814 10.281C1.12882 12.2903 0 15.0155 0 17.8571L0 96.4285C0 99.2701 1.12882 101.995 3.13814 104.005C5.14746 106.014 7.87268 107.143 10.7143 107.143H89.2857C92.1273 107.143 94.8525 106.014 96.8619 104.005C98.8712 101.995 100 99.2701 100 96.4285V17.8571C100 15.0155 98.8712 12.2903 96.8619 10.281C94.8525 8.27165 92.1273 7.14282 89.2857 7.14282V7.14282ZM85.4643 71.875C85.1763 77.5959 83.8705 82.6651 79.6942 86.8303C75.5179 90.9955 70.4531 92.3281 64.7388 92.6004C58.8437 92.933 41.1696 92.933 35.2746 92.6004C29.5536 92.3125 24.5022 91.0044 20.3192 86.8303C16.1362 82.6562 14.8214 77.5848 14.5491 71.875C14.2165 65.9776 14.2165 48.3013 14.5491 42.4107C14.8371 36.6897 16.1272 31.6205 20.3192 27.4553C24.5112 23.2901 29.5759 21.9732 35.2746 21.7009C41.1696 21.3683 58.8437 21.3683 64.7388 21.7009C70.4598 21.9888 75.5268 23.2968 79.6942 27.4709C83.8616 31.6451 85.192 36.7165 85.4643 42.4375C85.7969 48.3125 85.7969 65.9732 85.4643 71.875Z" fill="#FF6600"/>
</g>
<defs>
<clipPath id="clip0">
<rect width="100" height="114.286" fill="white"/>
</clipPath>
</defs>
</svg>
