<svg width="53" height="56" viewBox="0 0 53 56" fill="none" xmlns="http://www.w3.org/2000/svg">
<path d="M15.0608 0.0195732C13.5538 0.0431404 12.3936 0.133133 11.3186 0.308826C7.62296 0.910904 5.54596 2.43859 5.02266 4.93903C5.0044 5.02473 3.87666 12.7274 2.51362 22.0586C1.15262 31.3897 0.0289328 39.0817 0.0187912 39.1524C-0.00757697 39.3302 -0.00554865 39.853 0.0208195 40.0437C0.130349 40.8022 0.477192 41.49 1.06743 42.1113C2.10796 43.2084 3.94765 44.029 5.77111 44.2111C6.0571 44.239 7.87448 44.2411 20.9328 44.2368L35.77 44.2304L36.0843 44.1811C37.2141 44.0076 38.208 43.6797 39.4148 43.0841C40.642 42.4756 41.4635 41.8607 42.0638 41.1022C42.4898 40.5644 42.7981 39.9044 42.9178 39.2659C42.9502 39.1031 43.8528 32.7352 43.8528 32.6795C43.8528 32.6752 41.3073 32.671 38.1979 32.671H32.5429L32.2894 34.2522L32.0358 35.8313L22.0017 35.8377C13.0791 35.842 11.9676 35.8377 11.9676 35.8099C11.9676 35.7928 12.8256 29.697 13.8742 22.2621C14.9229 14.8294 15.791 8.67361 15.8032 8.58148L15.8255 8.4165H25.8941H35.9626L35.9505 8.47435C35.9444 8.50863 35.8369 9.19855 35.7111 10.0127L35.4819 11.4912L36.7111 11.504C37.3865 11.5104 39.9584 11.519 42.4269 11.5212L46.9115 11.5233L46.9237 11.4633C46.9541 11.3026 47.5626 6.99809 47.7168 5.85607C47.8729 4.69263 47.877 4.65192 47.8628 4.34766C47.802 3.04281 46.9602 1.9565 45.3639 1.11445C44.1408 0.469524 42.8103 0.0967064 41.4493 0.0174294C41.0294 -0.00613785 16.5334 -0.00613785 15.0608 0.0195732Z" fill="#F2F2F2"/>
<path d="M35.7457 14.3175C34.5388 14.3989 33.3543 14.8832 32.3888 15.6909C32.119 15.9138 31.6343 16.428 31.4193 16.7151C30.6384 17.7564 30.2002 18.9627 30.1171 20.2976C30.0907 20.7197 30.1029 20.8546 30.1901 21.0539C30.2915 21.2875 30.5227 21.4803 30.7702 21.536C30.8534 21.5531 32.9851 21.5574 39.3804 21.5531C47.3639 21.5467 47.8933 21.5424 48.1123 21.5081C49.376 21.3046 50.455 20.7347 51.3292 19.8133C52.3353 18.7506 52.9032 17.3836 52.9722 15.8645C52.9844 15.6288 52.9783 15.5324 52.9519 15.3867C52.8545 14.8789 52.5199 14.4975 52.0371 14.3432C51.9215 14.3068 51.5483 14.3047 43.9543 14.3025C39.5751 14.3004 35.8816 14.3068 35.7457 14.3175Z" fill="#F2F2F2"/>
<path d="M31.0741 24.3792C29.1614 24.4885 27.5165 25.8233 26.914 27.756C26.7214 28.3731 26.6341 29.2108 26.7335 29.4915C26.7923 29.6543 26.8938 29.77 27.054 29.8536L27.1899 29.9243H33.7211C40.5606 29.9243 40.3415 29.9265 40.7695 29.8365C41.9196 29.5901 42.9459 28.8294 43.5767 27.7538C43.9519 27.1111 44.1608 26.3933 44.2075 25.5748C44.2298 25.1934 44.1426 24.9084 43.9316 24.6813C43.7937 24.5335 43.5828 24.4199 43.386 24.3856C43.2968 24.3728 41.2766 24.3664 37.2199 24.3685C33.9016 24.3706 31.135 24.3749 31.0741 24.3792Z" fill="#F2F2F2"/>
<path d="M18.8781 47.1786C18.4562 47.2451 18.1844 47.6243 18.2574 48.0442C18.3264 48.4363 18.6124 48.6592 19.0465 48.6592C19.5069 48.657 19.8193 48.3506 19.8233 47.8943C19.8274 47.4207 19.3994 47.0951 18.8781 47.1786Z" fill="#F2F2F2"/>
<path d="M28.5795 50.0992C28.5795 52.2826 28.5835 52.6618 28.6099 52.8225C28.6931 53.326 28.9446 53.6903 29.3401 53.8852C29.62 54.0224 29.7356 54.0438 30.1616 54.0417C30.4719 54.0395 30.5611 54.0331 30.6788 53.9988L30.8208 53.9559L30.8147 53.8124C30.8106 53.7331 30.8126 53.6688 30.8167 53.6688C30.8208 53.6688 30.8918 53.6967 30.9729 53.7331C31.5854 54.0009 32.3481 54.1295 33.0053 54.0759C33.3704 54.0481 33.5914 54.0052 33.8734 53.9131C34.632 53.6624 35.1228 53.1696 35.2851 52.4947C35.3399 52.2676 35.352 51.9183 35.3115 51.7148C35.2709 51.5069 35.1593 51.2948 35.0011 51.1277C34.7395 50.8513 34.4312 50.6992 33.6645 50.4656C32.9343 50.2449 32.774 50.1721 32.6199 49.9964C32.3785 49.72 32.5225 49.2872 32.9221 49.0879C33.1675 48.9679 33.2933 48.9444 33.7415 48.9444C34.0924 48.9444 34.1756 48.9508 34.3582 48.9936C34.6421 49.0622 34.8794 49.1522 35.1066 49.2786L35.2932 49.3836L35.5386 48.8651C35.8206 48.2673 35.8226 48.3444 35.5265 48.1945C35.0498 47.9523 34.5042 47.8409 33.8044 47.8409C32.9586 47.8409 32.3095 48.0423 31.8187 48.4558C31.196 48.9829 30.9952 49.9728 31.3806 50.6178C31.5428 50.8877 31.841 51.1148 32.2609 51.2884C32.3724 51.3355 32.6868 51.4405 32.9586 51.5262C33.6624 51.7426 33.8328 51.824 33.9667 52.0105C34.0133 52.0747 34.0255 52.1154 34.0316 52.2333C34.0539 52.649 33.7213 52.9018 33.0702 52.9618C32.3947 53.0239 31.5875 52.8161 31.0702 52.4454L30.9546 52.364L30.8045 52.6554C30.6321 52.9939 30.6301 52.9939 30.3644 52.9789C30.1859 52.9682 30.0723 52.9146 29.9831 52.7989C29.8533 52.6318 29.8573 52.7304 29.8573 50.02V47.5624H29.2184H28.5795V50.0992Z" fill="#F2F2F2"/>
<path d="M4.74473 47.8515C4.02468 47.9608 3.43444 48.2607 2.96387 48.7578C2.4142 49.3385 2.13023 50.0734 2.12618 50.9369C2.12415 51.6632 2.31684 52.2974 2.7083 52.8524C3.40604 53.8423 4.72648 54.3029 6.02257 54.0072C6.36536 53.9301 6.76697 53.7565 7.01442 53.5787C7.17263 53.4673 7.43226 53.2295 7.5215 53.1159L7.60669 53.0109L7.27607 52.6895C7.09555 52.5138 6.90489 52.3296 6.85216 52.2781L6.7548 52.1839L6.62093 52.3274C6.41404 52.5481 6.1605 52.7152 5.89073 52.8074C5.46276 52.9552 4.907 52.9188 4.47497 52.7174C4.02671 52.5074 3.69407 52.0874 3.53788 51.5368C3.48718 51.3611 3.48312 51.3097 3.48109 50.9797C3.47906 50.7033 3.48718 50.579 3.51354 50.4655C3.73666 49.5013 4.52162 48.9314 5.49724 49.0235C5.92522 49.0642 6.2822 49.2378 6.61484 49.5699C6.7406 49.6941 6.75885 49.707 6.79131 49.6813C6.80956 49.6641 7.00225 49.4799 7.21725 49.2678L7.60872 48.8864L7.50122 48.7664C6.9414 48.1365 6.16658 47.8151 5.23153 47.8215C5.05912 47.8236 4.84006 47.8365 4.74473 47.8515Z" fill="#F2F2F2"/>
<path d="M20.4501 50.5341L20.4562 52.7796L20.5029 52.9489C20.6489 53.4995 20.9836 53.8466 21.5109 53.9923C21.7584 54.0609 22.2756 54.0737 22.5352 54.0159C22.732 53.973 22.9957 53.8702 23.0788 53.8016L23.1234 53.7652L22.9632 53.3067C22.874 53.056 22.7969 52.846 22.7928 52.8417C22.7888 52.8375 22.7218 52.8632 22.6448 52.8996C22.5332 52.9532 22.4683 52.9703 22.3324 52.9767C22.0991 52.9917 22.0018 52.9617 21.8841 52.8353C21.7239 52.6682 21.7239 52.6618 21.7239 51.4897V50.4763H22.2715H22.8192V49.9513V49.4264H22.2715H21.7239V48.8586V48.2908H21.085H20.444L20.4501 50.5341Z" fill="#F2F2F2"/>
<path d="M9.38135 49.2872C8.68361 49.4029 8.14205 49.7885 7.82157 50.3949C7.45851 51.0827 7.43619 52.0833 7.76478 52.8011C8.04875 53.4181 8.5254 53.8188 9.18258 53.9945C9.33673 54.0373 9.41178 54.0438 9.74645 54.0416C10.075 54.0416 10.1562 54.0331 10.2941 53.9945C10.5375 53.9238 10.7991 53.7781 10.9695 53.6131L11.1156 53.4717V53.731V53.9902H11.7342H12.3528L12.3488 51.659L12.3427 49.33H11.7038H11.0649L11.0588 49.5593L11.0527 49.7885L10.9168 49.6707C10.5233 49.3321 9.95942 49.1907 9.38135 49.2872ZM10.2515 50.4013C10.647 50.5106 10.935 50.8256 11.0466 51.2691C11.0933 51.4576 11.0953 51.8519 11.0486 52.0404C10.9594 52.4004 10.7586 52.6768 10.4848 52.8203C10.3245 52.9039 10.1095 52.9618 9.95942 52.9618C9.71602 52.9618 9.38135 52.8289 9.20489 52.6639C8.90267 52.379 8.76474 51.8669 8.85399 51.3484C8.93106 50.8856 9.24343 50.5213 9.65923 50.4035C9.80324 50.3606 10.1055 50.3606 10.2515 50.4013Z" fill="#F2F2F2"/>
<path d="M15.3732 49.2852C15.0061 49.3538 14.718 49.4952 14.4828 49.7202L14.3408 49.8595V49.5895V49.3195H13.7323H13.1238V52.5013V55.6831H13.7627H14.4016V54.6011C14.4016 54.0054 14.4077 53.5191 14.4138 53.5191C14.4199 53.5191 14.4787 53.5705 14.5436 53.6326C14.6917 53.7719 14.9249 53.9069 15.1622 53.9819C15.3346 54.0376 15.3651 54.0419 15.7403 54.0419C16.1034 54.0419 16.1521 54.0376 16.3326 53.984C16.9492 53.8083 17.4157 53.4162 17.6855 52.8441C17.864 52.467 17.937 52.1156 17.935 51.6443C17.9289 50.4487 17.2859 49.5552 16.2575 49.3174C16.0202 49.2617 15.5821 49.2467 15.3732 49.2852ZM15.8093 50.4015C16.0141 50.4594 16.148 50.5387 16.3001 50.6994C16.5395 50.9522 16.6389 51.2307 16.6389 51.655C16.6409 51.9421 16.6064 52.1028 16.4989 52.3363C16.3569 52.6427 16.077 52.8656 15.7464 52.932C15.5557 52.9705 15.4624 52.9684 15.2839 52.9298C14.7282 52.8056 14.3996 52.3385 14.3976 51.67C14.3976 51.2629 14.4949 50.9629 14.7099 50.7208C14.8377 50.5772 15.0304 50.4551 15.215 50.4037C15.361 50.363 15.6612 50.3608 15.8093 50.4015Z" fill="#F2F2F2"/>
<path d="M24.8068 49.2892C23.6629 49.4842 22.9327 50.4805 22.9874 51.7725C23.028 52.7195 23.4458 53.4437 24.1598 53.8144C24.5148 53.9965 24.8555 54.0672 25.3038 54.048C25.8109 54.0287 26.1273 53.9001 26.4579 53.5809L26.5715 53.4716V53.7308V53.9901H27.18H27.7885V51.6546V49.3192H27.1495H26.5106V49.5677V49.8163L26.3808 49.6899C26.2104 49.527 25.9731 49.3942 25.7257 49.3278C25.4681 49.2571 25.0847 49.2421 24.8068 49.2892ZM25.6952 50.4012C26.0928 50.4998 26.3889 50.8233 26.5005 51.2797C26.5411 51.4468 26.5411 51.8561 26.5005 52.0382C26.397 52.4946 26.0725 52.8352 25.6486 52.9295C25.4681 52.9702 25.3768 52.9702 25.1821 52.9295C24.963 52.8867 24.7825 52.7859 24.6223 52.6188C24.3768 52.3639 24.2653 52.0146 24.2856 51.5689C24.3119 50.9776 24.6223 50.5383 25.1111 50.4034C25.2571 50.3626 25.535 50.3626 25.6952 50.4012Z" fill="#F2F2F2"/>
<path d="M43.4772 49.2785C42.388 49.3942 41.5503 50.1677 41.3252 51.269C41.2745 51.5175 41.2724 52.0725 41.3232 52.2846C41.4043 52.6295 41.5382 52.8909 41.7491 53.1245C42.2339 53.6644 43.0574 53.8808 43.82 53.6687C44.0776 53.5959 44.2662 53.493 44.5259 53.283L44.5806 53.238L44.5685 53.3516C44.536 53.6623 44.3575 54.0779 44.175 54.2708C43.9133 54.5472 43.603 54.6565 43.0777 54.6565C42.5381 54.6565 42.0412 54.5108 41.6619 54.2408C41.5625 54.1701 41.5503 54.1658 41.528 54.2001C41.3658 54.4486 40.9723 55.115 40.9783 55.1343C40.9946 55.175 41.315 55.3657 41.5138 55.4514C42.2379 55.7663 43.2338 55.8285 44.035 55.6078C44.2967 55.5349 44.6699 55.3357 44.8808 55.1578C45.3108 54.7936 45.6151 54.2472 45.7997 53.5102C45.8483 53.3087 46.5907 49.4028 46.5907 49.3406C46.5907 49.3278 46.3696 49.3192 45.9822 49.3192H45.3737L45.3636 49.3663C45.3575 49.3942 45.3311 49.5656 45.3027 49.7477C45.2723 49.9298 45.2459 50.082 45.2419 50.0862C45.2378 50.0905 45.2196 50.0627 45.1993 50.022C45.1384 49.8977 45.0025 49.7284 44.8808 49.6256C44.6415 49.4263 44.3595 49.3192 43.9721 49.2763C43.747 49.2528 43.7145 49.2528 43.4772 49.2785ZM44.2764 50.4312C44.5482 50.5319 44.747 50.7355 44.822 50.9904C44.8666 51.149 44.8646 51.4897 44.8179 51.6761C44.7064 52.1132 44.4082 52.4581 44.0228 52.5974C43.8322 52.666 43.4346 52.6831 43.246 52.6295C42.7714 52.4988 42.5239 52.1389 42.5625 51.6375C42.5909 51.2668 42.7044 50.9969 42.9377 50.7526C43.1101 50.5705 43.2582 50.4826 43.5077 50.4119C43.7186 50.3519 44.0878 50.3626 44.2764 50.4312Z" fill="#F2F2F2"/>
<path d="M48.9539 49.2698C47.8769 49.3641 47.0209 50.0669 46.7248 51.1018C46.6315 51.4232 46.6051 51.6503 46.6173 52.0402C46.6254 52.3424 46.6335 52.4216 46.6802 52.5823C46.81 53.0409 47.0655 53.4008 47.4388 53.6558C48.1284 54.1272 49.2764 54.1829 50.1486 53.7865C50.3088 53.7136 50.5745 53.5529 50.6638 53.4737L50.7125 53.433L50.4447 52.9937C50.2967 52.7516 50.1729 52.5545 50.1668 52.5545C50.1628 52.5545 50.11 52.593 50.0533 52.6402C49.9214 52.743 49.6496 52.8802 49.4711 52.9294C49.3941 52.9509 49.2237 52.9701 49.0634 52.9766C48.6131 52.9959 48.3332 52.9144 48.1223 52.7023C48.0168 52.5973 47.9479 52.4795 47.9093 52.3445C47.8931 52.2781 47.8931 52.2781 47.9965 52.2567C48.0554 52.2438 48.7998 52.0981 49.6537 51.9331C50.5076 51.7681 51.2256 51.6289 51.252 51.6224C51.2946 51.6117 51.2966 51.6032 51.2966 51.3589C51.2966 50.5447 51.0045 49.9405 50.4386 49.5805C50.0614 49.3405 49.4934 49.2206 48.9539 49.2698ZM49.4366 50.294C49.7125 50.3561 49.9458 50.5447 50.0533 50.7911C50.0817 50.8575 50.106 50.9454 50.108 50.9882L50.11 51.0632L48.9985 51.2753C48.386 51.391 47.883 51.4832 47.8769 51.4789C47.8728 51.4746 47.889 51.3975 47.9113 51.3118C48.0148 50.9132 48.2683 50.5661 48.5665 50.4097C48.8383 50.2683 49.1425 50.2276 49.4366 50.294Z" fill="#F2F2F2"/>
<path d="M37.5547 49.3064C37.2058 49.3771 36.8103 49.557 36.5486 49.767C36.2789 49.9834 35.9929 50.3498 35.8347 50.6798C35.6258 51.119 35.5183 51.7811 35.5771 52.2675C35.6805 53.1502 36.1734 53.7652 36.9442 53.9773C37.2362 54.0587 37.65 54.063 37.9583 53.9901C38.2829 53.913 38.5871 53.7373 38.8528 53.4716L39.0232 53.3023L39.084 53.4266C39.1652 53.5937 39.2646 53.7137 39.4167 53.8187C39.6702 53.9944 40.0536 54.0737 40.4552 54.033C40.6621 54.0137 40.8791 53.9666 40.9075 53.9366C40.9217 53.9216 41.0373 52.9595 41.0272 52.9467C41.0231 52.9424 40.9927 52.9488 40.9602 52.9638C40.9278 52.9767 40.8142 52.9874 40.7087 52.9895C40.5059 52.9917 40.4288 52.966 40.3274 52.8695C40.2767 52.8181 40.2219 52.6488 40.2219 52.5353C40.2219 52.4924 40.3538 51.7597 40.516 50.9048C40.6783 50.0498 40.8101 49.3428 40.8101 49.3342C40.8101 49.3192 39.5729 49.3385 39.5546 49.3535C39.5506 49.3578 39.5222 49.4906 39.4917 49.6513C39.4613 49.812 39.4329 49.947 39.4268 49.9513C39.4207 49.9577 39.3741 49.9042 39.3234 49.8334C39.153 49.6042 38.8873 49.4285 38.5688 49.3385C38.362 49.2806 37.7778 49.2614 37.5547 49.3064ZM38.4634 50.4012C38.8224 50.4998 39.0698 50.7655 39.1449 51.1362C39.1753 51.2926 39.1733 51.5775 39.1388 51.7661C39.0719 52.1239 38.9644 52.3446 38.7433 52.576C38.4938 52.8374 38.2301 52.9488 37.8589 52.9467C37.1754 52.9445 36.8022 52.5224 36.8427 51.7939C36.8813 51.0826 37.2444 50.5598 37.8082 50.4034C37.9583 50.3605 38.3153 50.3605 38.4634 50.4012Z" fill="#F2F2F2"/>
<path d="M18.3971 51.6548V53.9902H19.036H19.6749V51.6548V49.3193H19.036H18.3971V51.6548Z" fill="#F2F2F2"/>
</svg>
