<svg width="55" height="55" viewBox="0 0 55 55" fill="none" xmlns="http://www.w3.org/2000/svg">
<rect opacity="0.1" width="55" height="55" fill="white"/>
<path d="M21.9661 37.4047C21.6512 37.4047 21.3959 37.6599 21.3959 37.9749V40.9779C21.3959 41.2929 21.6512 41.5481 21.9661 41.5481C22.281 41.5481 22.5363 41.2929 22.5363 40.9779V37.9749C22.5363 37.6599 22.281 37.4047 21.9661 37.4047Z" fill="white"/>
<path d="M33.0037 37.4047C32.6888 37.4047 32.4335 37.6599 32.4335 37.9749V40.9779C32.4335 41.2929 32.6888 41.5481 33.0037 41.5481C33.3186 41.5481 33.5739 41.2929 33.5739 40.9779V37.9749C33.5739 37.6599 33.3186 37.4047 33.0037 37.4047Z" fill="white"/>
<path d="M44.0835 35.4139L42.1742 34.6479V34.1603C42.549 33.952 42.8855 33.6809 43.1687 33.361C44.3764 33.5036 45.532 33.0215 46.28 32.0516C47.0536 31.0486 47.2146 29.756 46.7106 28.5939L45.8533 26.617C45.7888 26.4685 45.7445 26.3118 45.7214 26.1515C45.5366 24.8674 44.8948 23.6923 43.9143 22.8427C42.9338 21.9931 41.6793 21.5253 40.3819 21.5253C39.0846 21.5253 37.8301 21.9931 36.8496 22.8427C35.8691 23.6923 35.2273 24.8673 35.0425 26.1515C35.0194 26.3119 34.9751 26.4685 34.9106 26.617L34.0533 28.5939C33.5494 29.756 33.7103 31.0485 34.4839 32.0516C35.1457 32.9095 36.1261 33.3877 37.1795 33.3876C37.3154 33.3876 37.4526 33.3796 37.5905 33.3634C37.8475 33.6548 38.1489 33.9058 38.4846 34.1056V34.6479L36.5753 35.4139C36.4509 35.4639 36.3294 35.5204 36.2109 35.5829C35.8415 34.9034 35.3141 34.3092 34.6578 33.8579L32.171 32.1476C32.1854 31.8335 32.0598 31.5172 31.8039 31.3001L30.7934 30.4426C30.6976 30.3613 30.59 30.2999 30.4762 30.2581V29.1037C31.5444 28.329 32.3018 27.1519 32.5238 25.7963H32.5846C33.6718 25.7963 34.5563 24.9118 34.5563 23.8246C34.5563 23.3605 34.3947 22.9335 34.1253 22.5963L34.5329 19.6988C34.8267 17.61 33.3684 15.6583 31.2819 15.3479L31.2008 15.3359C30.5336 14.247 29.5003 13.4614 28.2605 13.1098L28.1113 13.0675C26.4675 12.6014 24.7093 12.8796 23.2874 13.8309C23.0256 14.006 22.9554 14.3601 23.1305 14.6218C23.3056 14.8835 23.6596 14.9538 23.9215 14.7787C25.065 14.0137 26.4787 13.7899 27.8002 14.1647L27.9494 14.207C28.9868 14.5012 29.8384 15.1867 30.3474 16.1374C30.6975 16.7915 30.852 17.5108 30.8074 18.2303L30.4209 17.8981C30.0676 17.5944 29.5481 17.5863 29.1857 17.8791L28.6787 18.2886H25.7843C23.9062 18.2886 22.3782 19.8166 22.3782 21.6948V21.8531C22.227 21.8537 22.0799 21.8718 21.9385 21.9047C21.2939 20.0899 21.4756 18.0452 22.4446 16.3726C22.6024 16.1001 22.5095 15.7512 22.237 15.5933C21.9645 15.4356 21.6157 15.5284 21.4578 15.8009C20.286 17.8237 20.096 20.3107 20.9384 22.4872C20.6131 22.8389 20.4138 23.3089 20.4138 23.8246C20.4138 24.9118 21.2983 25.7963 22.3856 25.7963H22.4464C22.6684 27.1519 23.4258 28.329 24.4939 29.1037V30.2581C24.3802 30.2998 24.2725 30.3613 24.1768 30.4426L23.1662 31.3001C22.9104 31.5172 22.7848 31.8336 22.7991 32.1476L20.3123 33.8579C19.807 34.2054 19.3779 34.6375 19.0385 35.1281C18.8185 35.0066 18.5893 34.9028 18.3519 34.8187L16.6635 34.2207V33.7713C17.5235 33.2399 18.1418 32.3542 18.314 31.3193H18.5691C19.5696 31.3193 20.3835 30.5054 20.3835 29.505C20.3835 29.0558 20.2191 28.6446 19.9478 28.3274L20.0496 27.1223C20.1911 25.3869 19.4338 23.7407 18.0239 22.7191C16.6139 21.6974 14.8138 21.4903 13.2087 22.1652L12.0721 22.643C10.3123 23.0315 9.13603 24.7178 9.3873 26.5091L9.64154 28.3216C9.36723 28.6395 9.20081 29.0531 9.20081 29.505C9.20081 30.5054 10.0147 31.3193 11.0152 31.3193H11.2703C11.4313 32.287 11.9826 33.124 12.7567 33.6631V34.2207L11.0683 34.8186C10.8318 34.9024 10.5989 35.0073 10.376 35.1306C10.1004 35.283 10.0005 35.6299 10.1528 35.9055C10.2568 36.0937 10.4516 36.1999 10.6523 36.1999C10.7456 36.1999 10.8403 36.177 10.9277 36.1286C11.096 36.0355 11.2714 35.9565 11.4489 35.8936L12.9079 35.3768C13.2033 36.081 13.8998 36.5769 14.71 36.5769C15.5202 36.5769 16.2167 36.081 16.5121 35.3768L17.9711 35.8937C18.1546 35.9586 18.3318 36.0394 18.5016 36.1343C18.2751 36.7085 18.1536 37.3272 18.1536 37.9621V41.3449C18.1536 41.6599 18.4089 41.9152 18.7239 41.9152C19.0388 41.9152 19.2941 41.6599 19.2941 41.3449V37.9621C19.2941 36.6973 19.9163 35.5143 20.9584 34.7976L23.3333 33.1643L24.3066 34.4658C24.5159 34.7456 24.8439 34.9032 25.1823 34.9032C25.2877 34.9032 25.3942 34.8879 25.4982 34.8562L26.9147 34.4251V41.5837C26.9147 41.8987 27.17 42.1539 27.485 42.1539C27.7999 42.1539 28.0552 41.8987 28.0552 41.5837V34.4251L29.4718 34.8563C29.5759 34.8879 29.6822 34.9032 29.7876 34.9032C30.1259 34.9032 30.454 34.7455 30.6633 34.4658L31.6366 33.1643L34.0114 34.7976C35.0536 35.5143 35.6758 36.6973 35.6758 37.9621V41.3449C35.6758 41.6599 35.9311 41.9152 36.246 41.9152C36.5609 41.9152 36.8162 41.6599 36.8162 41.3449V37.9621C36.8162 37.513 36.7553 37.072 36.6397 36.6489C36.7553 36.5815 36.8755 36.5224 36.9998 36.4725L38.6555 35.8081C38.9488 36.4395 39.5886 36.8786 40.3293 36.8786C41.0701 36.8786 41.7099 36.4396 42.0032 35.8082L43.6589 36.4725C44.7059 36.8925 45.3823 37.8928 45.3823 39.0208V39.986C45.3823 40.301 45.6376 40.5562 45.9526 40.5562C46.2675 40.5562 46.5228 40.301 46.5228 39.986V39.0208C46.5227 37.4242 45.5652 36.0085 44.0835 35.4139ZM21.554 23.8246C21.554 23.3687 21.923 22.9977 22.378 22.9937V24.6553C21.9231 24.6514 21.554 24.2804 21.554 23.8246ZM18.569 30.1787H18.3631V28.8309H18.569C18.9406 28.8309 19.2429 29.1333 19.2429 29.5048C19.2429 29.8764 18.9406 30.1787 18.569 30.1787ZM10.3411 29.5049C10.3411 29.1333 10.6434 28.831 11.015 28.831H11.2209V30.1788H11.015C10.6435 30.1787 10.3411 29.8765 10.3411 29.5049ZM11.9134 25.9328C11.5352 26.4552 11.3065 27.0566 11.241 27.6905H11.015C10.9104 27.6905 10.8081 27.6999 10.7082 27.7169L10.5166 26.3505C10.3461 25.1355 11.1544 23.9925 12.3568 23.7482C12.3936 23.7408 12.4296 23.7297 12.4643 23.7151L13.6506 23.2163C14.8855 22.6971 16.2701 22.8565 17.3547 23.6423C18.4392 24.4283 19.0217 25.6945 18.913 27.0277L18.8551 27.7131C18.7619 27.6983 18.6664 27.6904 18.569 27.6904H18.3581C18.309 27.2069 17.8996 26.8283 17.4033 26.8283H15.9953C14.9918 26.8283 13.9988 26.4943 13.1992 25.888L13.0379 25.7657C12.8685 25.6372 12.6506 25.5814 12.4405 25.6127C12.2302 25.644 12.0381 25.7607 11.9134 25.9328ZM12.8371 26.6018C12.837 26.602 12.8369 26.6021 12.8368 26.6023C12.8369 26.6021 12.837 26.602 12.8371 26.6018ZM12.3614 28.07C12.3614 27.6576 12.4608 27.2591 12.6511 26.9002C13.6222 27.5905 14.8028 27.9689 15.9953 27.9689H17.2227V30.7313C17.2227 32.0716 16.1323 33.162 14.792 33.162C13.4518 33.162 12.3614 32.0716 12.3614 30.7313V28.07ZM14.7099 35.4364C14.2617 35.4364 13.897 35.0717 13.897 34.6235V34.1888C14.1831 34.2629 14.4831 34.3025 14.792 34.3025C15.0425 34.3025 15.2868 34.2763 15.5229 34.227V34.6235C15.5229 35.0717 15.1582 35.4364 14.7099 35.4364ZM32.5917 24.6553V22.9937C33.0467 22.9976 33.4156 23.3687 33.4156 23.8246C33.4156 24.2804 33.0467 24.6514 32.5917 24.6553ZM33.4033 19.5397L33.0694 21.9134C32.9164 21.8745 32.7564 21.8536 32.5916 21.853V21.8068C32.5916 20.8875 32.3073 20.0032 31.7924 19.2643C32.0169 18.3995 32.009 17.5092 31.7765 16.663C32.878 17.1331 33.5774 18.3022 33.4033 19.5397ZM23.5185 24.9683V21.6946C23.5185 20.4452 24.5349 19.4289 25.7842 19.4289H28.8801C29.0105 19.4289 29.1369 19.3842 29.2383 19.3023L29.7882 18.8581L30.2991 19.2971C31.0313 19.9265 31.4512 20.8414 31.4512 21.8068V24.9682C31.4512 27.1553 29.6719 28.9346 27.4848 28.9346C25.2977 28.9346 23.5185 27.1553 23.5185 24.9683ZM27.4849 30.0751C28.1376 30.0751 28.7613 29.9507 29.3356 29.7266V30.4572L27.4849 31.3647L25.6341 30.4572V29.7266C26.2084 29.9507 26.8322 30.0751 27.4849 30.0751ZM25.1991 33.755L23.9708 32.1127L24.8677 31.3516L26.9146 32.3551V33.2329L25.1991 33.755ZM29.7705 33.755L28.0551 33.233V32.3552L30.1019 31.3516L30.9988 32.1128L29.7705 33.755ZM35.3868 31.3551C34.8706 30.6857 34.7632 29.8232 35.0995 29.0477L35.9568 27.0708C36.0616 26.8294 36.1338 26.5748 36.1712 26.314C36.4706 24.2342 38.2807 22.6658 40.3819 22.6658C42.4831 22.6658 44.2933 24.2342 44.5926 26.314C44.63 26.5747 44.7022 26.8293 44.807 27.0708L45.6643 29.0477C46.0005 29.8232 45.8932 30.6857 45.3769 31.3551C44.9947 31.8506 44.453 32.1557 43.8584 32.2289C43.9812 31.9099 44.0613 31.5698 44.0907 31.2154C44.1167 30.9016 43.8833 30.626 43.5695 30.6C43.256 30.5746 42.9802 30.8074 42.9541 31.1212C42.8443 32.4477 41.7144 33.4868 40.3819 33.4868C38.9581 33.4868 37.7999 32.3285 37.7999 30.9047V28.1693C37.7999 27.5628 37.9784 26.9662 38.3073 26.4599C39.0451 27.0231 39.9547 27.3452 40.8837 27.3698L42.9639 27.4247V28.7382C42.9639 29.0531 43.2192 29.3084 43.5342 29.3084C43.8491 29.3084 44.1044 29.0531 44.1044 28.7382V27.2703C44.1044 26.734 43.6844 26.3028 43.1483 26.2887L40.9138 26.2299C40.1902 26.2107 39.4826 25.9487 38.9213 25.4921L38.7739 25.3722C38.6001 25.2309 38.3818 25.1661 38.159 25.19C37.9363 25.2138 37.7366 25.3233 37.5968 25.4981C36.9923 26.2534 36.6593 27.2021 36.6593 28.1695V30.905C36.6593 31.3708 36.746 31.8166 36.903 32.2279C36.3095 32.1541 35.7686 31.85 35.3868 31.3551ZM40.3292 35.738C39.9408 35.738 39.6248 35.4221 39.6248 35.0336V34.5496C39.8693 34.6003 40.1225 34.6273 40.3819 34.6273C40.6037 34.6273 40.8214 34.6064 41.0337 34.5681V35.0336C41.0337 35.4221 40.7177 35.738 40.3292 35.738Z" fill="white"/>
<path d="M9.22216 36.8892C8.93873 36.7517 8.59774 36.8705 8.46043 37.1539C8.15495 37.785 8 38.46 8 39.1601V40.9778C8 41.2928 8.2553 41.548 8.57022 41.548C8.88513 41.548 9.14043 41.2928 9.14043 40.9778V39.1601C9.14043 38.6336 9.25698 38.1258 9.48697 37.6509C9.6242 37.3675 9.50567 37.0264 9.22216 36.8892Z" fill="white"/>
</svg>
