<svg width="36" height="36" viewBox="0 0 36 36" fill="none" xmlns="http://www.w3.org/2000/svg">
<path d="M33.1875 14.6249H20.25V14.0624C20.25 13.9132 20.1907 13.7701 20.0852 13.6646C19.9798 13.5591 19.8367 13.4999 19.6875 13.4999H18V12.3749H23.625C24.5198 12.374 25.3778 12.0181 26.0105 11.3854C26.6432 10.7526 26.9991 9.89471 27 8.99988V7.31238C27 7.16319 26.9407 7.02012 26.8352 6.91463C26.7298 6.80914 26.5867 6.74988 26.4375 6.74988H21.375V4.49988C21.3741 3.60505 21.0182 2.74712 20.3855 2.11438C19.7528 1.48164 18.8948 1.12577 18 1.12488H6.1875C5.44185 1.12577 4.727 1.42237 4.19975 1.94963C3.6725 2.47688 3.37589 3.19173 3.375 3.93738V7.93113C2.74017 8.06168 2.16976 8.4071 1.7599 8.90917C1.35005 9.41125 1.12582 10.0393 1.125 10.6874V32.0624C1.12589 32.808 1.4225 33.5229 1.94975 34.0501C2.477 34.5774 3.19185 34.874 3.9375 34.8749H15.1875C15.9331 34.874 16.648 34.5774 17.1753 34.0501C17.7025 33.5229 17.9991 32.808 18 32.0624V29.2499H19.6875C19.8367 29.2499 19.9798 29.1906 20.0852 29.0851C20.1907 28.9796 20.25 28.8366 20.25 28.6874V28.1249H33.1875C33.635 28.1249 34.0643 27.9471 34.3807 27.6306C34.6972 27.3142 34.875 26.8849 34.875 26.4374V16.3124C34.875 15.8648 34.6972 15.4356 34.3807 15.1191C34.0643 14.8027 33.635 14.6249 33.1875 14.6249ZM25.875 8.99988C25.875 9.59661 25.6379 10.1689 25.216 10.5909C24.794 11.0128 24.2217 11.2499 23.625 11.2499C23.0283 11.2499 22.456 11.0128 22.034 10.5909C21.6121 10.1689 21.375 9.59661 21.375 8.99988V7.87488H25.875V8.99988ZM4.5 3.93738C4.5 3.48983 4.67779 3.0606 4.99426 2.74414C5.31072 2.42767 5.73995 2.24988 6.1875 2.24988H15.4867C14.9313 2.86763 14.6244 3.66916 14.625 4.49988V12.3749H4.5V3.93738ZM16.875 32.0624C16.875 32.5099 16.6972 32.9392 16.3807 33.2556C16.0643 33.5721 15.6351 33.7499 15.1875 33.7499H3.9375C3.48995 33.7499 3.06072 33.5721 2.74426 33.2556C2.42779 32.9392 2.25 32.5099 2.25 32.0624V10.6874C2.25144 10.3396 2.3603 10.0008 2.56167 9.71723C2.76305 9.4337 3.04711 9.2193 3.375 9.10338V12.9374C3.375 13.0866 3.43426 13.2296 3.53975 13.3351C3.64524 13.4406 3.78832 13.4999 3.9375 13.4999H15.1875C15.3367 13.4999 15.4798 13.4406 15.5852 13.3351C15.6907 13.2296 15.75 13.0866 15.75 12.9374V9.10338C16.0779 9.2193 16.3619 9.4337 16.5633 9.71723C16.7647 10.0008 16.8736 10.3396 16.875 10.6874V32.0624ZM15.75 7.93113V4.49988C15.75 3.90314 15.9871 3.33084 16.409 2.90889C16.831 2.48693 17.4033 2.24988 18 2.24988C18.5967 2.24988 19.169 2.48693 19.591 2.90889C20.0129 3.33084 20.25 3.90314 20.25 4.49988V8.99988C20.2502 9.83126 20.5589 10.633 21.1162 11.2499H18V10.6874C17.9992 10.0393 17.7749 9.41125 17.3651 8.90917C16.9552 8.4071 16.3848 8.06168 15.75 7.93113ZM19.125 28.1249H18V14.6249H19.125V28.1249ZM33.1875 15.7499C33.3367 15.7499 33.4798 15.8091 33.5852 15.9146C33.6907 16.0201 33.75 16.1632 33.75 16.3124V17.9999H20.25V15.7499H33.1875ZM33.1875 26.9999H20.25V19.1249H33.75V26.4374C33.75 26.5866 33.6907 26.7296 33.5852 26.8351C33.4798 26.9406 33.3367 26.9999 33.1875 26.9999Z" fill="#FF6600"/>
<path d="M6.18749 20.2499H3.93749C3.78831 20.2499 3.64523 20.3091 3.53974 20.4146C3.43426 20.5201 3.37499 20.6632 3.37499 20.8124V23.0624C3.37499 23.2116 3.43426 23.3546 3.53974 23.4601C3.64523 23.5656 3.78831 23.6249 3.93749 23.6249H6.18749C6.33668 23.6249 6.47975 23.5656 6.58524 23.4601C6.69073 23.3546 6.74999 23.2116 6.74999 23.0624V20.8124C6.74999 20.6632 6.69073 20.5201 6.58524 20.4146C6.47975 20.3091 6.33668 20.2499 6.18749 20.2499ZM5.62499 22.4999H4.49999V21.3749H5.62499V22.4999Z" fill="#FF6600"/>
<path d="M10.6875 20.2499H8.43749C8.28831 20.2499 8.14523 20.3091 8.03974 20.4146C7.93426 20.5201 7.87499 20.6632 7.87499 20.8124V23.0624C7.87499 23.2116 7.93426 23.3546 8.03974 23.4601C8.14523 23.5656 8.28831 23.6249 8.43749 23.6249H10.6875C10.8367 23.6249 10.9798 23.5656 11.0852 23.4601C11.1907 23.3546 11.25 23.2116 11.25 23.0624V20.8124C11.25 20.6632 11.1907 20.5201 11.0852 20.4146C10.9798 20.3091 10.8367 20.2499 10.6875 20.2499ZM10.125 22.4999H8.99999V21.3749H10.125V22.4999Z" fill="#FF6600"/>
<path d="M15.1875 20.2499H12.9375C12.7883 20.2499 12.6452 20.3091 12.5397 20.4146C12.4343 20.5201 12.375 20.6632 12.375 20.8124V23.0624C12.375 23.2116 12.4343 23.3546 12.5397 23.4601C12.6452 23.5656 12.7883 23.6249 12.9375 23.6249H15.1875C15.3367 23.6249 15.4798 23.5656 15.5852 23.4601C15.6907 23.3546 15.75 23.2116 15.75 23.0624V20.8124C15.75 20.6632 15.6907 20.5201 15.5852 20.4146C15.4798 20.3091 15.3367 20.2499 15.1875 20.2499ZM14.625 22.4999H13.5V21.3749H14.625V22.4999Z" fill="#FF6600"/>
<path d="M6.18749 24.75H3.93749C3.78831 24.75 3.64523 24.8093 3.53974 24.9148C3.43426 25.0202 3.37499 25.1633 3.37499 25.3125V27.5625C3.37499 27.7117 3.43426 27.8548 3.53974 27.9602C3.64523 28.0657 3.78831 28.125 3.93749 28.125H6.18749C6.33668 28.125 6.47975 28.0657 6.58524 27.9602C6.69073 27.8548 6.74999 27.7117 6.74999 27.5625V25.3125C6.74999 25.1633 6.69073 25.0202 6.58524 24.9148C6.47975 24.8093 6.33668 24.75 6.18749 24.75ZM5.62499 27H4.49999V25.875H5.62499V27Z" fill="#FF6600"/>
<path d="M10.6875 24.75H8.43749C8.28831 24.75 8.14523 24.8093 8.03974 24.9148C7.93426 25.0202 7.87499 25.1633 7.87499 25.3125V27.5625C7.87499 27.7117 7.93426 27.8548 8.03974 27.9602C8.14523 28.0657 8.28831 28.125 8.43749 28.125H10.6875C10.8367 28.125 10.9798 28.0657 11.0852 27.9602C11.1907 27.8548 11.25 27.7117 11.25 27.5625V25.3125C11.25 25.1633 11.1907 25.0202 11.0852 24.9148C10.9798 24.8093 10.8367 24.75 10.6875 24.75ZM10.125 27H8.99999V25.875H10.125V27Z" fill="#FF6600"/>
<path d="M15.1875 24.75H12.9375C12.7883 24.75 12.6452 24.8093 12.5397 24.9148C12.4343 25.0202 12.375 25.1633 12.375 25.3125V27.5625C12.375 27.7117 12.4343 27.8548 12.5397 27.9602C12.6452 28.0657 12.7883 28.125 12.9375 28.125H15.1875C15.3367 28.125 15.4798 28.0657 15.5852 27.9602C15.6907 27.8548 15.75 27.7117 15.75 27.5625V25.3125C15.75 25.1633 15.6907 25.0202 15.5852 24.9148C15.4798 24.8093 15.3367 24.75 15.1875 24.75ZM14.625 27H13.5V25.875H14.625V27Z" fill="#FF6600"/>
<path d="M6.18749 29.25H3.93749C3.78831 29.25 3.64523 29.3093 3.53974 29.4148C3.43426 29.5202 3.37499 29.6633 3.37499 29.8125V32.0625C3.37499 32.2117 3.43426 32.3548 3.53974 32.4602C3.64523 32.5657 3.78831 32.625 3.93749 32.625H6.18749C6.33668 32.625 6.47975 32.5657 6.58524 32.4602C6.69073 32.3548 6.74999 32.2117 6.74999 32.0625V29.8125C6.74999 29.6633 6.69073 29.5202 6.58524 29.4148C6.47975 29.3093 6.33668 29.25 6.18749 29.25ZM5.62499 31.5H4.49999V30.375H5.62499V31.5Z" fill="#FF6600"/>
<path d="M10.6875 29.25H8.43749C8.28831 29.25 8.14523 29.3093 8.03974 29.4148C7.93426 29.5202 7.87499 29.6633 7.87499 29.8125V32.0625C7.87499 32.2117 7.93426 32.3548 8.03974 32.4602C8.14523 32.5657 8.28831 32.625 8.43749 32.625H10.6875C10.8367 32.625 10.9798 32.5657 11.0852 32.4602C11.1907 32.3548 11.25 32.2117 11.25 32.0625V29.8125C11.25 29.6633 11.1907 29.5202 11.0852 29.4148C10.9798 29.3093 10.8367 29.25 10.6875 29.25ZM10.125 31.5H8.99999V30.375H10.125V31.5Z" fill="#FF6600"/>
<path d="M15.1875 29.25H12.9375C12.7883 29.25 12.6452 29.3093 12.5397 29.4148C12.4343 29.5202 12.375 29.6633 12.375 29.8125V32.0625C12.375 32.2117 12.4343 32.3548 12.5397 32.4602C12.6452 32.5657 12.7883 32.625 12.9375 32.625H15.1875C15.3367 32.625 15.4798 32.5657 15.5852 32.4602C15.6907 32.3548 15.75 32.2117 15.75 32.0625V29.8125C15.75 29.6633 15.6907 29.5202 15.5852 29.4148C15.4798 29.3093 15.3367 29.25 15.1875 29.25ZM14.625 31.5H13.5V30.375H14.625V31.5Z" fill="#FF6600"/>
<path d="M15.1875 15.7499H3.93749C3.78831 15.7499 3.64523 15.8091 3.53974 15.9146C3.43426 16.0201 3.37499 16.1632 3.37499 16.3124V18.5624C3.37499 18.7116 3.43426 18.8546 3.53974 18.9601C3.64523 19.0656 3.78831 19.1249 3.93749 19.1249H15.1875C15.3367 19.1249 15.4797 19.0656 15.5852 18.9601C15.6907 18.8546 15.75 18.7116 15.75 18.5624V16.3124C15.75 16.1632 15.6907 16.0201 15.5852 15.9146C15.4797 15.8091 15.3367 15.7499 15.1875 15.7499ZM14.625 17.9999H4.49999V16.8749H14.625V17.9999Z" fill="#FF6600"/>
<path d="M30.9375 22.5C30.521 22.5015 30.12 22.6579 29.8125 22.9388C29.5706 22.7189 29.27 22.574 28.9473 22.5217C28.6246 22.4695 28.2937 22.5121 27.9947 22.6443C27.6958 22.7766 27.4417 22.9928 27.2633 23.2668C27.0849 23.5408 26.99 23.8606 26.99 24.1875C26.99 24.5144 27.0849 24.8343 27.2633 25.1083C27.4417 25.3822 27.6958 25.5985 27.9947 25.7307C28.2937 25.863 28.6246 25.9056 28.9473 25.8533C29.27 25.801 29.5706 25.6562 29.8125 25.4363C30.0157 25.6209 30.2608 25.7532 30.5267 25.8217C30.7925 25.8901 31.0711 25.8927 31.3381 25.8292C31.6052 25.7656 31.8527 25.6379 32.0593 25.457C32.2658 25.2761 32.4251 25.0476 32.5233 24.7913C32.6215 24.5349 32.6557 24.2584 32.6229 23.9859C32.5901 23.7133 32.4913 23.4529 32.3351 23.2271C32.1788 23.0014 31.9699 22.8172 31.7263 22.6905C31.4828 22.5638 31.212 22.4984 30.9375 22.5ZM28.6875 24.75C28.5762 24.75 28.4675 24.717 28.375 24.6552C28.2825 24.5934 28.2104 24.5056 28.1678 24.4028C28.1252 24.3 28.1141 24.1869 28.1358 24.0778C28.1575 23.9687 28.2111 23.8684 28.2898 23.7898C28.3684 23.7111 28.4686 23.6575 28.5778 23.6358C28.6869 23.6141 28.8 23.6253 28.9028 23.6678C29.0055 23.7104 29.0934 23.7825 29.1552 23.875C29.217 23.9675 29.25 24.0763 29.25 24.1875C29.25 24.3367 29.1907 24.4798 29.0852 24.5853C28.9798 24.6908 28.8367 24.75 28.6875 24.75ZM30.9375 24.75C30.8263 24.75 30.7175 24.717 30.625 24.6552C30.5325 24.5934 30.4604 24.5056 30.4178 24.4028C30.3752 24.3 30.3641 24.1869 30.3858 24.0778C30.4075 23.9687 30.4611 23.8684 30.5398 23.7898C30.6184 23.7111 30.7186 23.6575 30.8278 23.6358C30.9369 23.6141 31.05 23.6253 31.1528 23.6678C31.2555 23.7104 31.3434 23.7825 31.4052 23.875C31.467 23.9675 31.5 24.0763 31.5 24.1875C31.5 24.3367 31.4407 24.4798 31.3353 24.5853C31.2298 24.6908 31.0867 24.75 30.9375 24.75Z" fill="#FF6600"/>
<path d="M5.62499 4.49988H6.74999V5.62488H5.62499V4.49988Z" fill="#FF6600"/>
<path d="M7.87499 4.49988H13.5V5.62488H7.87499V4.49988Z" fill="#FF6600"/>
<path d="M5.62499 6.74988H13.5V7.87488H5.62499V6.74988Z" fill="#FF6600"/>
<path d="M5.62499 9H13.5V10.125H5.62499V9Z" fill="#FF6600"/>
</svg>
